<svg height="512pt" viewBox="-52 0 511 512" width="512pt" xmlns="http://www.w3.org/2000/svg"><path d="m103.601562 239.734375h-63.0625v-63.0625h63.0625zm-48.046874-15.015625h33.03125v-33.03125h-33.03125zm0 0"/><path d="m183.679688 239.734375h-63.0625v-63.0625h63.0625zm-48.046876-15.015625h33.03125v-33.03125h-33.03125zm0 0"/><path d="m263.757812 319.8125h-63.0625v-63.0625h63.0625zm-48.046874-15.015625h33.03125v-33.03125h-33.03125zm0 0"/><g fill="#72e9cd"><path d="m200.695312 176.671875h63.0625v63.0625h-63.0625zm0 0"/><path d="m40.539062 256.75h63.0625v63.0625h-63.0625zm0 0"/><path d="m120.617188 256.75h63.0625v63.0625h-63.0625zm0 0"/></g><path d="m183.679688 399.890625h-63.0625v-63.0625h63.0625zm-48.046876-15.015625h33.03125v-33.03125h-33.03125zm0 0"/><path d="m8.007812 344.835938v15.015624h7.507813l65.0625 65.0625v7.507813h15.015625v-87.585937zm0 0" fill="#72e9cd"/><path d="m255.75 56.554688v-56.554688h-15.015625v56.554688h-177.171875v-56.554688h-15.015625v56.554688h-48.046875v298.898437l84.476562 84.476563h123.226563v-15.015626h-117.007813l-75.679687-75.679687v-197.585937h273.265625v200.695312h15.015625v-200.695312h17.015625v152.648437h15.015625v-247.742187zm-240.234375 80.078124v-65.0625h273.265625v65.0625zm288.28125 0v-65.0625h17.015625v65.0625zm0 0"/><path d="m383.875 496.984375v-128.125h-47.546875v15.015625h32.53125v33.03125h-129.125v-33.03125h32.53125v-15.015625h-8.507813v-32.03125h-63.0625v63.0625h24.023438v97.09375h-24.523438v15.015625h208.203126v-15.015625zm-168.164062-112.109375v-33.03125h33.03125v17.015625h-24.023438v16.015625zm24.023437 47.046875h129.125v65.0625h-17.015625v-48.046875h-95.09375v48.046875h-17.015625zm97.09375 65.0625h-65.0625v-33.03125h65.0625zm0 0"/><path d="m320.3125 317.703125-58.664062 58.664063 29.332031 29.332031 5.308593-5.308594h16.015626l5.308593 5.308594 45.347657-45.347657zm0 0" fill="#72e9cd"/><path d="m264.257812 392.882812h80.078126v15.015626h-80.078126zm0 0"/><path d="m112.109375 96.59375h16.015625v15.015625h-16.015625zm0 0" fill="#72e9cd"/><path d="m144.140625 96.59375h16.015625v15.015625h-16.015625zm0 0" fill="#72e9cd"/><path d="m176.171875 96.59375h16.015625v15.015625h-16.015625zm0 0" fill="#72e9cd"/></svg>