<svg height="512pt" viewBox="0 -16 512 512" width="512pt" xmlns="http://www.w3.org/2000/svg"><g fill="#72e9cd"><path d="m307.453125 257.292969-6.71875 13.445312 3.359375 1.679688v47.320312l-3.359375 1.679688 6.71875 13.445312 36.21875-18.109375v-41.351562zm0 0"/><path d="m0 256.5v79.15625h39.578125v-79.15625zm0 0"/><path d="m127.25 421.214844v-61.011719h-63.125v119.734375h79.15625v-42.691406zm0 0"/><path d="m384.25 136.265625h16.03125v15.03125h-16.03125zm0 0"/><path d="m416.3125 136.265625h16.03125v15.03125h-16.03125zm0 0"/><path d="m448.375 136.265625h16.03125v15.03125h-16.03125zm0 0"/></g><path d="m379.347656 239.46875h-18.644531v-32.0625h-24.046875v-127.25h175.34375v127.25h-100.589844zm-27.660156-47.09375h24.046875v29.453125l29.449219-29.453125h91.785156v-97.1875h-145.28125zm0 0"/><path d="m294.859375 176.34375-150.578125 50.191406v126.152344h-97.1875v-113.21875h80.65625v-15.03125h-95.6875v143.28125h118.515625l144.28125 48.09375h16.75v-239.46875zm-135.546875 61.027344 105.203125-35.070313v187.554688l-105.203125-35.066407zm137.265625 163.171875-17.03125-5.679688v-197.570312l17.03125-5.679688zm0 0"/><path d="m247.984375 56.109375h16.03125v15.03125h-16.03125zm0 0" fill="#72e9cd"/><path d="m215.921875 56.109375h16.03125v15.03125h-16.03125zm0 0" fill="#72e9cd"/><path d="m183.859375 56.109375h16.03125v15.03125h-16.03125zm0 0" fill="#72e9cd"/><path d="m287.5625 159.3125h-18.644531l-32.0625-32.0625h-100.589844v-127.25h175.34375v127.25h-24.046875zm-136.265625-47.09375h91.785156l29.449219 29.453125v-29.453125h24.046875v-97.1875h-145.28125zm0 0"/></svg>