<svg height="512pt" viewBox="0 -104 512 512" width="512pt" xmlns="http://www.w3.org/2000/svg"><path d="m0 184h48v15h-48zm0 0"/><path d="m512 184h-40.5v-24h-95v24h-24.5v15h24.5v104h18.605469l28.894531-28.894531 28.894531 28.894531h18.605469v-104h40.5zm-55.5 101.394531-32.5-32.5-32.5 32.5v-110.394531h65zm0 0"/><path d="m247.5 160h-95v24h-24.5v15h24.5v16.5h15v-40.5h65v110.394531l-32.5-32.5-32.5 32.5v-53.894531h-15v71.5h18.605469l28.894531-28.894531 28.894531 28.894531h18.605469v-104h24.5v-15h-24.5zm0 0"/><path d="m464 24h48v15h-48zm0 0"/><path d="m359.5 0h-95v24h-24.5v15h24.5v104h18.605469l28.894531-28.894531 28.894531 28.894531h18.605469v-104h24.5v-15h-24.5zm-15 125.394531-32.5-32.5-32.5 32.5v-110.394531h65zm0 0"/><path d="m135.5 0h-95v24h-40.5v15h40.5v104h18.605469l28.894531-28.894531 28.894531 28.894531h18.605469v-104h24.5v-15h-24.5zm-15 125.394531-32.5-32.5-32.5 32.5v-110.394531h65zm0 0"/><g fill="#72e9cd"><path d="m152.5 0v143h18.605469l28.894531-28.894531 28.894531 28.894531h18.605469v-143zm0 0"/><path d="m376.5 0v55.5h7.5v16h-7.5v71.5h18.605469l28.894531-28.894531 28.894531 28.894531h18.605469v-143zm0 0"/><path d="m40.5 160v143h18.605469l28.894531-28.894531 28.894531 28.894531h18.605469v-143zm0 0"/><path d="m264.5 160v143h18.605469l28.894531-28.894531 28.894531 28.894531h18.605469v-143zm0 0"/></g><path d="m416 56h16v15h-16zm0 0"/><path d="m304 56h16v15h-16zm0 0" fill="#72e9cd"/><path d="m192 56h16v15h-16zm0 0"/><path d="m80 56h16v15h-16zm0 0" fill="#72e9cd"/><path d="m416 216h16v15h-16zm0 0" fill="#72e9cd"/><path d="m304 216h16v15h-16zm0 0"/><path d="m192 216h16v15h-16zm0 0" fill="#72e9cd"/><path d="m80 216h16v15h-16zm0 0"/></svg>