<svg height="512pt" viewBox="0 -16 512 512" width="512pt" xmlns="http://www.w3.org/2000/svg"><path d="m327.640625 255.5h-143.28125v-18.644531l42.28125-42.277344 10.625 10.625-35.265625 35.265625h108l-35.265625-35.265625 10.628906-10.625 42.277344 42.277344zm0 0"/><path d="m256 120.234375c-26.242188 0-47.59375 21.351563-47.59375 47.59375s21.351562 47.59375 47.59375 47.59375 47.59375-21.351563 47.59375-47.59375-21.351562-47.59375-47.59375-47.59375zm0 0" fill="#72e9cd"/><path d="m471.921875 199.390625h-143.28125v-18.644531l42.28125-42.277344 10.628906 10.625-35.269531 35.265625h108l-35.265625-35.265625 10.628906-10.625 42.277344 42.277344zm0 0"/><path d="m400.28125 64.125c-26.242188 0-47.59375 21.351562-47.59375 47.59375s21.351562 47.59375 47.59375 47.59375 47.59375-21.351562 47.59375-47.59375-21.351562-47.59375-47.59375-47.59375zm0 0" fill="#72e9cd"/><path d="m183.359375 135.265625h-143.28125v-18.644531l42.28125-42.277344 10.625 10.625-35.265625 35.265625h108l-35.265625-35.265625 10.625-10.625 42.28125 42.277344zm0 0"/><g fill="#72e9cd"><path d="m111.71875 0c-26.242188 0-47.59375 21.351562-47.59375 47.59375s21.351562 47.59375 47.59375 47.59375 47.59375-21.351562 47.59375-47.59375-21.351562-47.59375-47.59375-47.59375zm0 0"/><path d="m215.921875 440.859375h16.03125v15.03125h-16.03125zm0 0"/><path d="m247.984375 440.859375h16.03125v15.03125h-16.03125zm0 0"/><path d="m280.046875 440.859375h16.03125v15.03125h-16.03125zm0 0"/></g><path d="m431.84375 416.8125v-129.25h24.046875v-18.644531l-55.609375-55.605469-55.609375 55.605469v18.644531h24.046875v112.71875h15.03125v-127.75h-21.4375l37.96875-37.96875 37.96875 37.96875h-21.4375v144.28125h-129.25v-73.140625h24.046875v-18.644531l-55.609375-55.605469-55.609375 55.605469v18.644531h24.046875v73.140625h-129.25v-208.40625h-21.4375l37.96875-37.96875 37.96875 37.96875h-21.4375v191.875h15.03125v-176.84375h24.046875l-.003906-18.644531-55.605469-55.609375-55.609375 55.609375v18.644531h24.046875v193.375h-80.15625v63.125h512v-63.125zm-213.8125-88.171875 37.96875-37.96875 37.96875 37.96875h-21.4375v88.171875h-33.0625v-88.171875zm278.9375 136.265625h-481.9375v-33.0625h481.9375zm0 0"/></svg>