<svg height="512pt" viewBox="0 -19 512 511" width="512pt" xmlns="http://www.w3.org/2000/svg"><path d="m320.125 337.15625v15.03125h32.5625v56.609375h15.03125v-71.640625zm0 0"/><path d="m144.28125 440.859375h15.03125v32.0625h-15.03125zm0 0"/><path d="m352.6875 440.859375h15.03125v32.0625h-15.03125zm0 0"/><path d="m144.28125 408.796875h15.03125v-56.609375h32.5625v-15.03125h-47.59375zm0 0"/><path d="m136.265625 448.375h55.609375v-47.09375h-55.609375zm0 0" fill="#72e9cd"/><path d="m320.125 401.28125v47.09375h55.609375v-47.09375zm0 0" fill="#72e9cd"/><path d="m184.359375 384.75h15.03125v88.171875h-15.03125zm0 0"/><path d="m312.609375 384.75h15.03125v88.171875h-15.03125zm0 0"/><path d="m199.890625 160.8125c-12.984375 0-23.546875 10.5625-23.546875 23.546875v51.207031l24.046875 24.046875v24.046875l24.046875 24.046875v28.949219h15.03125v-16.53125h33.0625v16.53125h15.03125v-28.949219l24.046875-24.046875v-60.953125c9.308594-3.144531 16.03125-11.960937 16.03125-22.316406v-39.578125zm96.6875 116.621094-27.660156 27.660156h-25.835938l-27.660156-27.660156v-53.496094h81.15625zm16.03125-77.042969c0 4.695313-3.820313 8.515625-8.515625 8.515625h-103.703125v29.453125l-9.015625-9.019531v-44.980469c0-4.695313 3.820312-8.515625 8.515625-8.515625h112.71875zm0 0"/><path d="m330.753906 344.671875-34.675781-34.671875-40.078125 40.078125-40.078125-40.078125-34.675781 34.671875 50.707031 50.707031 24.046875-24.046875 24.046875 24.046875zm0 0" fill="#72e9cd"/><path d="m192.375 77.042969-11.628906 11.628906h-1.789063l-11.628906-11.628906v-36.964844h-15.03125v43.191406l20.433594 20.433594h14.242187l20.433594-20.433594v-43.191406h-15.03125zm0 0"/><path d="m216.421875 103.703125h47.09375v-63.125h-47.09375zm15.03125-48.09375h17.03125v33.0625h-17.03125zm0 0"/><path d="m272.03125 55.609375h16.53125v48.59375h15.03125v-48.59375h16.53125v-15.03125h-48.09375zm0 0"/><path d="m368.21875 55.609375v-15.03125h-39.578125v63.125h39.578125v-15.03125h-24.546875v-9.015625h24.546875v-15.03125h-24.546875v-9.015625zm0 0"/><g fill="#72e9cd"><path d="m464.40625 289.0625v95.6875h40.078125v-95.6875zm0 0"/><path d="m7.515625 289.0625v63.625h40.078125v-63.625zm0 0"/><path d="m95.6875 216.921875v63.625h40.078125v-63.625zm0 0"/><path d="m376.234375 216.921875v63.625h40.078125v-63.625zm0 0"/></g><path d="m464.90625 143.78125v16.53125h15.03125v-159.8125h-439.859375v159.8125h15.03125v-16.53125h33.0625v136.765625h15.03125v-152.796875h41.078125v25.046875h-24.546875v15.03125h39.578125v-24.046875h193.375v24.046875h39.578125v-15.03125h-24.546875v-25.046875h41.078125v152.796875h15.03125v-136.765625zm-112.21875-31.0625v16.03125h-193.375v-16.03125h-71.140625v16.03125h-33.0625v-113.21875h409.796875v113.21875h-41.078125v-16.03125zm0 0"/><path d="m456.890625 256.5h15.03125v128.25h-15.03125zm0 0"/><path d="m440.859375 184.859375v55.109375h39.578125v-15.03125h-24.546875v-25.046875h41.078125v184.859375h15.03125v-199.890625zm0 0"/><path d="m40.078125 256.5h15.03125v96.1875h-15.03125zm0 0"/><path d="m0 352.6875h15.03125v-152.796875h41.078125v25.046875h-24.546875v15.03125h39.578125v-55.109375h-71.140625zm0 0"/><path d="m128.25 184.359375h15.03125v96.1875h-15.03125zm0 0"/><path d="m368.71875 184.359375h15.03125v96.1875h-15.03125zm0 0"/><path d="m87.671875 64.625h16.03125v15.03125h-16.03125zm0 0" fill="#72e9cd"/><path d="m119.734375 64.625h16.03125v15.03125h-16.03125zm0 0" fill="#72e9cd"/><path d="m384.25 64.625h16.03125v15.03125h-16.03125zm0 0" fill="#72e9cd"/><path d="m416.3125 64.625h16.03125v15.03125h-16.03125zm0 0" fill="#72e9cd"/></svg>