<svg height="512pt" viewBox="0 -2 512 511" width="512pt" xmlns="http://www.w3.org/2000/svg"><path d="m192.375 77.042969-11.628906 11.628906h-1.789063l-11.628906-11.628906v-36.964844h-15.03125v43.191406l20.433594 20.433594h14.242187l20.433594-20.433594v-43.191406h-15.03125zm0 0"/><path d="m216.421875 103.703125h47.09375v-63.125h-47.09375zm15.03125-48.09375h17.03125v33.0625h-17.03125zm0 0"/><path d="m272.03125 55.609375h16.53125v48.59375h15.03125v-48.59375h16.53125v-15.03125h-48.09375zm0 0"/><path d="m368.21875 55.609375v-15.03125h-39.578125v63.125h39.578125v-15.03125h-24.546875v-9.015625h24.546875v-15.03125h-24.546875v-9.015625zm0 0"/><g fill="#72e9cd"><path d="m464.40625 281.046875v95.6875h40.078125v-95.6875zm0 0"/><path d="m7.515625 281.046875v63.625h40.078125v-63.625zm0 0"/><path d="m95.6875 216.921875v63.625h40.078125v-63.625zm0 0"/><path d="m376.234375 216.921875v63.625h40.078125v-63.625zm0 0"/></g><path d="m464.90625 143.78125v16.53125h15.03125v-159.8125h-439.859375v159.8125h15.03125v-16.53125h33.0625v136.765625h15.03125v-152.796875h41.078125v25.046875h-24.546875v15.03125h39.578125v-24.046875h193.375v24.046875h39.578125v-15.03125h-24.546875v-25.046875h41.078125v152.796875h15.03125v-136.765625zm-112.21875-31.0625v16.03125h-193.375v-16.03125h-71.140625v16.03125h-33.0625v-113.21875h409.796875v113.21875h-41.078125v-16.03125zm0 0"/><path d="m456.890625 248.484375h15.03125v128.25h-15.03125zm0 0"/><path d="m440.859375 176.84375v55.109375h39.578125v-15.03125h-24.546875v-25.046875h41.078125v184.859375h15.03125v-199.890625zm0 0"/><path d="m40.078125 248.484375h15.03125v96.1875h-15.03125zm0 0"/><path d="m0 344.671875h15.03125v-152.796875h41.078125v25.046875h-24.546875v15.03125h39.578125v-55.109375h-71.140625zm0 0"/><path d="m128.25 184.359375h15.03125v96.1875h-15.03125zm0 0"/><path d="m368.71875 184.359375h15.03125v96.1875h-15.03125zm0 0"/><path d="m87.671875 64.625h16.03125v15.03125h-16.03125zm0 0" fill="#72e9cd"/><path d="m119.734375 64.625h16.03125v15.03125h-16.03125zm0 0" fill="#72e9cd"/><path d="m384.25 64.625h16.03125v15.03125h-16.03125zm0 0" fill="#72e9cd"/><path d="m416.3125 64.625h16.03125v15.03125h-16.03125zm0 0" fill="#72e9cd"/><path d="m184.359375 392.765625h15.03125v88.171875h-15.03125zm0 0"/><path d="m312.609375 392.765625h15.03125v88.171875h-15.03125zm0 0"/><path d="m144.28125 480.9375h15.03125v-120.734375h48.59375v-15.03125h-63.625zm0 0"/><path d="m304.09375 345.171875v15.03125h48.59375v120.734375h15.03125v-135.765625zm0 0"/><path d="m279.160156 371.09375-14.257812-4.75-6.304688 18.90625h-5.195312l-6.304688-18.90625-14.257812 4.75 7.382812 22.15625-16.425781 82.140625 32.203125 32.207031 32.207031-32.207031-16.429687-82.140625zm-7.269531 99.359375-15.890625 15.890625-15.890625-15.890625 14.035156-70.171875h3.710938zm0 0"/><path d="m247.984375 353.1875h16.03125v15.03125h-16.03125zm0 0"/><path d="m199.890625 168.828125c-12.984375 0-23.546875 10.5625-23.546875 23.546875v51.207031l24.046875 24.046875v24.046875l24.046875 24.046875v28.949219h15.03125v-16.53125h33.0625v16.53125h15.03125v-28.949219l24.046875-24.046875v-60.953125c9.308594-3.144531 16.03125-11.960937 16.03125-22.316406v-39.578125zm96.6875 116.621094-27.660156 27.660156h-25.835938l-27.660156-27.660156v-53.5h81.15625zm16.03125-77.042969c0 4.695312-3.820313 8.515625-8.515625 8.515625h-103.703125v29.453125l-9.015625-9.019531v-44.980469c0-4.695312 3.820312-8.515625 8.515625-8.515625h112.71875zm0 0"/><path d="m292.964844 321.125-36.964844 36.964844-36.964844-36.964844h-18.644531v50.707031l23.546875 23.546875 32.0625-32.0625 32.0625 32.0625 23.546875-23.546875v-50.707031zm0 0" fill="#72e9cd"/></svg>