<svg height="512pt" viewBox="-80 0 512 512" width="512pt" xmlns="http://www.w3.org/2000/svg"><g fill="#72e9cd"><path d="m40.078125 280.546875h79.15625v79.15625h-79.15625zm0 0"/><path d="m40.078125 168.328125h79.15625v79.15625h-79.15625zm0 0"/><path d="m40.078125 392.765625h79.15625v79.15625h-79.15625zm0 0"/></g><path d="m79.65625 338.769531-21.34375-21.347656 10.625-10.625 10.71875 10.71875 34.765625-34.765625 10.625 10.625zm0 0"/><path d="m135.765625 232.453125h64.125v15.03125h-64.125zm0 0"/><path d="m135.765625 280.546875h96.1875v15.03125h-96.1875zm0 0"/><path d="m135.765625 312.609375h96.1875v15.03125h-96.1875zm0 0"/><path d="m135.765625 344.671875h64.125v15.03125h-64.125zm0 0"/><path d="m135.765625 392.765625h96.1875v15.03125h-96.1875zm0 0"/><path d="m135.765625 424.828125h96.1875v15.03125h-96.1875zm0 0"/><path d="m135.765625 456.890625h64.125v15.03125h-64.125zm0 0"/><path d="m194.988281 128.25h-194.988281v383.75h271.53125v-307.207031zm4.402344 25.65625 46.484375 46.484375h-46.484375zm-184.359375 343.0625v-353.6875h169.328125v25.046875h-48.59375v15.03125h48.59375v17.03125h-48.59375v15.03125h120.734375v281.546875zm0 0"/><path d="m296.578125 0v39.578125h47.09375v-39.578125zm0 0" fill="#72e9cd"/><path d="m290.066406 226.398438v48.289062l30.058594 30.058594 30.058594-30.058594v-48.289062zm0 0" fill="#72e9cd"/><path d="m351.6875 32.0625h-63.125v32.0625h-32.0625v87.671875h15.03125v-72.640625h17.03125v195.988281l24.046875 24.046875v12.917969h15.03125v-12.917969l24.046875-24.046875zm-15.03125 236.855469-16.53125 16.535156-16.53125-16.535156v-189.761719h33.0625zm0-204.792969h-33.0625v-17.03125h33.0625zm0 0"/><path d="m71.640625 200.390625h16.03125v15.03125h-16.03125zm0 0"/><path d="m71.640625 424.828125h16.03125v15.03125h-16.03125zm0 0"/></svg>