<svg height="512pt" viewBox="-16 0 512 512" width="512pt" xmlns="http://www.w3.org/2000/svg"><g fill="#72e9cd"><path d="m159.8125 168.328125h16.03125v15.03125h-16.03125zm0 0"/><path d="m191.875 168.328125h16.03125v15.03125h-16.03125zm0 0"/><path d="m223.9375 168.328125h16.03125v15.03125h-16.03125zm0 0"/><path d="m160.3125 200.390625h79.15625v79.15625h-79.15625zm0 0"/></g><path d="m199.890625 258.609375-21.34375-21.34375 10.625-10.625 10.71875 10.71875 34.765625-34.765625 10.625 10.625zm0 0"/><path d="m328.640625 184.359375-49.09375-49.09375v-7.515625h-15.03125v71.640625h71.640625v-15.03125zm0 0" fill="#72e9cd"/><path d="m343.671875 240.46875v-51.707031l-68.527344-68.527344h-219.035156v120.234375h-56.109375v271.53125h399.78125v-271.53125zm-218.535156 135.765625-110.105469 110.109375v-220.21875zm10.628906 10.628906 64.125 64.125 64.125-64.125 110.109375 110.105469h-348.46875zm138.875-10.628906 110.109375-110.109375v220.21875zm99.484375-120.734375-30.453125 30.453125v-30.453125zm-302.984375 16.53125v-136.765625h197.777344l59.722656 59.722656v105.992188l-128.75 128.75-174.234375-174.230469h30.453125v16.53125zm0 0"/><path d="m111.71875 296.578125h176.34375v15.03125h-176.34375zm0 0"/><path d="m143.78125 328.640625h112.21875v15.03125h-112.21875zm0 0"/><path d="m432.34375 39.578125v-32.0625h32.0625v32.0625" fill="#72e9cd"/><path d="m471.921875 39.578125h-15.03125v-24.546875h-17.03125v24.546875h-15.03125v-39.578125h47.09375zm0 0" fill="#72e9cd"/><path d="m418.316406 226.398438v48.289062l30.058594 30.058594 30.058594-30.058594v-48.289062zm0 0" fill="#72e9cd"/><path d="m479.9375 32.0625h-63.125v32.0625h-32.0625v87.671875h15.03125v-72.640625h17.03125v195.988281l24.046875 24.046875v12.917969h15.03125v-12.917969l24.046875-24.046875zm-48.09375 15.03125h33.0625v17.03125h-33.0625zm16.53125 238.359375-16.53125-16.535156v-189.761719h33.0625v189.761719zm0 0"/></svg>