<svg height="512pt" viewBox="-80 0 512 512" width="512pt" xmlns="http://www.w3.org/2000/svg"><g fill="#72e9cd"><path d="m247.242188 183.679688h-15.015626v128.125h47.546876v-128.125zm0 0"/><path d="m104.101562 183.679688h-32.53125v128.125h47.546876v-128.125zm0 0"/><path d="m135.632812 448.4375h16.015626v15.015625h-16.015626zm0 0"/><path d="m167.664062 448.4375h16.015626v15.015625h-16.015626zm0 0"/><path d="m199.695312 448.4375h16.015626v15.015625h-16.015626zm0 0"/></g><path d="m351.34375 304.296875h-64.0625v-128.125h-80.078125v-25.023437h56.054687v-151.148438h-151.648437c-12.972656 0-23.523437 10.550781-23.523437 23.523438v80.078124h15.015624v-80.078124c0-4.691407 3.816407-8.507813 8.507813-8.507813h136.632813v33.03125h-128.125v74.679687l13.40625 13.40625h-37.929688v15.015626h48.546875v25.023437h-80.078125v128.125h-25.023438v-117.507813l37.839844-37.839843-10.617187-10.617188-64.0625 64.0625 10.617187 10.617188 11.207032-11.207031v102.492187h-24.023438v127.125h63.5625v-15.015625h-48.546875v-65.0625h321.3125v65.0625h-65.0625v-24.023438h-191.1875v119.617188h15.015625v-104.601562h161.15625v104.601562h15.015625v-80.578125h80.078125zm-120.117188-241.234375h17.015626v73.070312h-30.421876l13.40625-13.40625zm-96.09375 0h81.078126v53.445312l-27.632813 27.632813h-25.8125l-27.632813-27.632813zm-56.054687 128.125h80.078125v-32.03125h33.03125v32.03125h80.078125v113.109375h-193.1875zm-64.0625 145.140625v-17.015625h321.3125v17.015625zm0 0"/><path d="m79.578125 112.109375c-12.972656 0-23.523437 10.550781-23.523437 23.523437 0 12.96875 10.550781 23.523438 23.523437 23.523438 12.96875 0 23.523437-10.554688 23.523437-23.523438 0-12.972656-10.554687-23.523437-23.523437-23.523437zm0 0" fill="#72e9cd"/><path d="m111.609375 224.21875h128.125v15.015625h-128.125zm0 0"/></svg>