<svg height="512pt" viewBox="-112 0 512 512" width="512pt" xmlns="http://www.w3.org/2000/svg"><path d="m287.28125 175.171875v-175.171875h-287.28125v175.171875h112.109375v32.53125h15.015625v-32.53125h33.03125v49.046875h-8.007812v47.046875h8.007812v17.015625h-.5c-8.554688 0-15.515625 6.960938-15.515625 15.515625v.5h-9.007813v-80.078125h-79.078124v143.140625h32.03125v24.523437h15.015624v-24.523437h32.03125v-48.046875h9.007813v24.523438h15.015625v-40.039063c0-.277344.222656-.5.5-.5h39.539062v-47.046875h-32.03125v-17.015625h49.046876v112.609375c0 .277344-.222657.5-.5.5h-39.539063v39.539062h15.015625v-24.523437h24.523438c8.554687 0 15.515624-6.960937 15.515624-15.515625v-127.625h-56.054687v-49.046875zm-167.164062 113.109375h-49.046876v-17.015625h49.046876zm0 15.015625v17.015625h-49.046876v-17.015625zm0-64.0625v17.015625h-49.046876v-17.015625zm-49.046876 113.109375v-17.015625h49.046876v17.015625zm113.109376-64.0625h-9.007813v-17.015625h9.007813zm-169.164063-273.265625h257.25v145.140625h-257.25zm0 0"/><path d="m47.546875 64.0625h192.1875v15.015625h-192.1875zm0 0"/><path d="m47.546875 96.09375h192.1875v15.015625h-192.1875zm0 0"/><path d="m79.578125 128.125h128.125v15.015625h-128.125zm0 0"/><g fill="#72e9cd"><path d="m72.070312 384.375v127.625h135.132813v-127.625zm0 0"/><path d="m103.601562 32.03125h16.015626v15.015625h-16.015626zm0 0"/><path d="m135.632812 32.03125h16.015626v15.015625h-16.015626zm0 0"/><path d="m167.664062 32.03125h16.015626v15.015625h-16.015626zm0 0"/></g><path d="m160.15625 415.90625h15.015625v16.015625h-15.015625zm0 0" fill="#fff"/></svg>