<svg height="512pt" viewBox="0 -16 512 512" width="512pt" xmlns="http://www.w3.org/2000/svg"><path d="m192.375 76.542969-11.628906 11.628906h-1.789063l-11.628906-11.628906v-36.964844h-15.03125v43.191406l20.433594 20.433594h14.242187l20.433594-20.433594v-43.191406h-15.03125zm0 0"/><path d="m216.421875 103.203125h47.09375v-63.125h-47.09375zm15.03125-48.09375h17.03125v33.0625h-17.03125zm0 0"/><path d="m272.03125 55.109375h16.53125v48.59375h15.03125v-48.59375h16.53125v-15.03125h-48.09375zm0 0"/><path d="m368.21875 55.109375v-15.03125h-39.578125v63.125h39.578125v-15.03125h-24.546875v-9.015625h24.546875v-15.03125h-24.546875v-9.015625zm0 0"/><path d="m464.40625 280.546875v95.6875h40.078125v-95.6875zm0 0" fill="#72e9cd"/><path d="m7.515625 280.546875v63.625h40.078125v-63.625zm0 0" fill="#72e9cd"/><path d="m95.6875 216.421875v63.625h40.078125v-63.625zm0 0" fill="#72e9cd"/><path d="m376.234375 216.421875v63.625h40.078125v-63.625zm0 0" fill="#72e9cd"/><path d="m464.90625 143.28125v16.53125h15.03125v-159.8125h-439.859375v159.8125h15.03125v-16.53125h33.0625v136.765625h15.03125v-152.796875h41.078125v25.046875h-24.546875v15.03125h39.578125v-24.046875h193.375v24.046875h39.578125v-15.03125h-24.546875v-25.046875h41.078125v152.796875h15.03125v-136.765625zm-112.21875-31.0625v16.03125h-193.375v-16.03125h-71.140625v16.03125h-33.0625v-113.21875h409.796875v113.21875h-41.078125v-16.03125zm0 0"/><path d="m456.890625 247.984375h15.03125v128.25h-15.03125zm0 0"/><path d="m440.859375 176.34375v55.109375h39.578125v-15.03125h-24.546875v-25.046875h41.078125v184.859375h15.03125v-199.890625zm0 0"/><path d="m40.078125 247.984375h15.03125v96.1875h-15.03125zm0 0"/><path d="m0 344.171875h15.03125v-152.796875h41.078125v25.046875h-24.546875v15.03125h39.578125v-55.109375h-71.140625zm0 0"/><path d="m128.25 183.859375h15.03125v96.1875h-15.03125zm0 0"/><path d="m368.71875 183.859375h15.03125v96.1875h-15.03125zm0 0"/><g fill="#72e9cd"><path d="m87.671875 64.125h16.03125v15.03125h-16.03125zm0 0"/><path d="m119.734375 64.125h16.03125v15.03125h-16.03125zm0 0"/><path d="m384.25 64.125h16.03125v15.03125h-16.03125zm0 0"/><path d="m416.3125 64.125h16.03125v15.03125h-16.03125zm0 0"/><path d="m327.640625 352.1875h-15.03125v128.25h47.59375v-128.25zm0 0"/><path d="m184.359375 352.1875h-32.5625v128.25h47.59375v-128.25zm0 0"/></g><path d="m287.5625 344.671875v-25.046875h56.109375v-151.296875h-151.796875c-12.984375 0-23.546875 10.5625-23.546875 23.546875v127.75h56.109375v25.046875h-80.15625v135.765625h15.03125v-120.734375h80.15625v-32.0625h33.0625v32.0625h80.15625v120.734375h15.03125v-135.765625zm10.625-40.078125 13.421875-13.417969v-59.722656h17.03125v73.140625zm-114.828125-112.71875c0-4.695312 3.820313-8.515625 8.515625-8.515625h136.765625v33.0625h-128.25v74.753906l13.421875 13.417969h-30.453125zm59.722656 120.734375-27.660156-27.660156v-53.496094h81.15625v53.496094l-27.660156 27.660156zm0 0"/><path d="m191.875 392.765625h128.25v15.03125h-128.25zm0 0"/></svg>