<svg height="512pt" viewBox="-72 0 512 512" width="512pt" xmlns="http://www.w3.org/2000/svg"><g fill="#72e9cd"><path d="m88.171875 280.546875h79.15625v79.15625h-79.15625zm0 0"/><path d="m88.171875 168.328125h79.15625v79.15625h-79.15625zm0 0"/><path d="m88.171875 464.40625h79.15625v-71.640625h-79.15625zm0 0"/></g><path d="m127.75 338.769531-21.34375-21.347656 10.625-10.625 10.71875 10.71875 34.765625-34.765625 10.625 10.625zm0 0"/><path d="m119.734375 200.390625h16.03125v15.03125h-16.03125zm0 0"/><path d="m119.734375 424.828125h16.03125v15.03125h-16.03125zm0 0"/><path d="m264.515625 0h47.09375v39.578125h-47.09375zm0 0" fill="#72e9cd"/><path d="m257.503906 225.742188v49.097656l30.558594 30.558594 30.558594-30.558594v-49.097656zm0 0" fill="#72e9cd"/><path d="m183.859375 232.453125h56.109375v15.03125h-56.109375zm0 0"/><path d="m183.859375 280.546875h64.125v15.03125h-64.125zm0 0"/><path d="m183.859375 312.609375h80.15625v15.03125h-80.15625zm0 0"/><path d="m183.859375 344.671875h64.125v15.03125h-64.125zm0 0"/><path d="m183.859375 392.765625h96.1875v15.03125h-96.1875zm0 0"/><path d="m183.859375 424.828125h96.1875v15.03125h-96.1875zm0 0"/><path d="m336.15625 128.75h-17.03125v-96.1875h-63.125v32.0625h-32.0625v87.171875h15.027344v-8.015625h17.035156v25.046875h-72.140625v15.03125h72.140625v17.03125h-72.140625v15.03125h72.140625v59.222656l24.046875 24.046875v12.917969h15.03125v-12.917969l24.046875-24.046875v-83.269531h48.09375v-32.0625c0-17.402344-13.660156-31.0625-31.0625-31.0625zm-80.15625 0h-17.035156v-49.09375h17.035156zm48.09375 140.167969-16.53125 16.535156-16.53125-16.535156v-189.261719h33.0625zm0-204.292969h-33.0625v-17.03125h33.0625zm48.09375 112.21875h-33.0625v-17.03125c0-9.117188 7.414062-16.53125 16.53125-16.53125 9.113281 0 16.53125 7.414062 16.53125 16.53125zm0 0"/><path d="m304.59375 480.4375c0 9.117188-7.414062 16.53125-16.53125 16.53125s-16.53125-7.414062-16.53125-16.53125v-23.546875h-208.40625v-297.078125c0-9.117188 7.414062-16.53125 16.53125-16.53125h128.25v-15.03125h-128.25c-17.402344 0-31.5625 14.160156-31.5625 31.5625v297.078125h-48.09375v23.546875c0 17.402344 14.160156 31.5625 31.5625 31.5625h256.5c17.402344 0 31.5625-14.160156 31.5625-31.5625v-176.34375h-15.03125zm-273.03125 16.53125c-9.117188 0-16.53125-7.414062-16.53125-16.53125v-8.515625h241.46875v8.515625c0 6.058594 1.714844 11.722656 4.6875 16.53125zm0 0"/></svg>