<svg height="512pt" viewBox="0 -64 512 512" width="512pt" xmlns="http://www.w3.org/2000/svg"><path d="m199.5 151h16v-79h-47v32h-9v-32h-47v32h-9v-32h-47v79h16v32h21.738281l-29.484375 110.566406 14.492188 3.867188 30.515625-114.433594h52.476562l30.515625 114.433594 14.492188-3.867188-29.484375-110.566406h21.738281zm-15 17h-97v-17h80.5v-15h-96.5v-49h17v32h39v-32h17v32h39v-32h17v49h-16zm0 0"/><g fill="#72e9cd"><path d="m128 200h16v15h-16zm0 0"/><path d="m48.5 288v39.5h175v-39.5zm0 0"/><path d="m376 0c-12.957031 0-23.5 10.542969-23.5 23.5s10.542969 23.5 23.5 23.5 23.5-10.542969 23.5-23.5-10.542969-23.5-23.5-23.5zm0 0"/></g><path d="m319.308594 297.132812-14.640625-3.25 31.992187-144.003906 14.644532 3.253906zm0 0"/><path d="m400.675781 153.144531 14.644531-3.253906 31.996094 144.003906-14.644531 3.253907zm0 0"/><path d="m336.816406 121.65625 14.367188-4.3125-17.820313-59.402344c-.78125-2.597656-.300781-5.339844 1.320313-7.515625 1.621094-2.179687 4.105468-3.425781 6.820312-3.425781h68.988282c2.714843 0 5.199218 1.246094 6.820312 3.425781 1.621094 2.175781 2.101562 4.917969 1.324219 7.515625l-17.824219 59.402344 14.367188 4.3125 17.824218-59.402344c2.152344-7.1875.820313-14.761718-3.65625-20.78125-4.480468-6.019531-11.351562-9.472656-18.855468-9.472656h-68.988282c-7.503906 0-14.375 3.453125-18.855468 9.472656-4.476563 6.019532-5.808594 13.59375-3.65625 20.78125zm0 0"/><path d="m288.5 288v39.5h175v-39.5zm0 0" fill="#72e9cd"/><path d="m312.5 112h127v47h-127zm0 0" fill="#72e9cd"/><path d="m479.5 368v-48h-207v48h-33v-48h-207v48h-32.5v15h512v-15zm-192-33h177v33h-177zm-240 0h177v33h-177zm0 0"/><path d="m368 72h16v15h-16zm0 0" fill="#72e9cd"/></svg>