<svg height="512pt" viewBox="-16 0 512 512" width="512pt" xmlns="http://www.w3.org/2000/svg"><path d="m208.40625 151.796875h15.03125v248.484375h-15.03125zm0 0"/><path d="m256.5 151.796875h15.03125v272.53125h-15.03125zm0 0"/><path d="m208.40625 103.703125h15.03125v-88.671875h33.0625v64.625h15.03125v-79.65625h-63.125zm0 0"/><path d="m47.59375 135.265625h28.757812l-59.730468 141.863281 13.851562 5.835938 57.199219-135.851563 57.199219 135.851563 13.851562-5.835938-59.734375-141.863281h108.917969v-15.03125h-160.3125zm0 0"/><path d="m463.316406 277.128906-59.730468-141.863281h28.757812v-15.03125h-160.3125v15.03125h108.917969l-59.734375 141.863281 13.851562 5.835938 57.199219-135.851563 57.199219 135.851563zm0 0"/><path d="m176.34375 416.8125h127.25v47.09375h-127.25zm0 0" fill="#72e9cd"/><path d="m335.65625 512h-191.375v-63.125h191.375zm-176.34375-15.03125h161.3125v-33.0625h-161.3125zm0 0"/><path d="m0 272.53125v7.515625c0 48.34375 39.328125 87.671875 87.671875 87.671875 48.339844 0 87.671875-39.328125 87.671875-87.671875v-7.515625zm0 0" fill="#72e9cd"/><path d="m239.96875 88.171875c-21.824219 0-39.578125 17.753906-39.578125 39.578125 0 21.820312 17.753906 39.578125 39.578125 39.578125s39.578125-17.757813 39.578125-39.578125c0-21.824219-17.753906-39.578125-39.578125-39.578125zm0 0" fill="#72e9cd"/><path d="m231.953125 120.234375h16.03125v15.03125h-16.03125zm0 0" fill="#fff"/><path d="m304.59375 272.53125v7.515625c0 48.34375 39.328125 87.671875 87.671875 87.671875s87.671875-39.328125 87.671875-87.671875v-7.515625zm0 0" fill="#72e9cd"/></svg>