<svg height="512pt" viewBox="0 -24 512 512" width="512pt" xmlns="http://www.w3.org/2000/svg"><g fill="#72e9cd"><path d="m256.25 320.3125h16.015625v15.015625h-16.015625zm0 0"/><path d="m288.28125 320.3125h16.015625v15.015625h-16.015625zm0 0"/><path d="m320.3125 320.3125h16.015625v15.015625h-16.015625zm0 0"/><path d="m144.640625 248.242188h55.054687v95.09375h-55.054687zm0 0"/><path d="m392.882812 248.242188h55.054688v95.09375h-55.054688zm0 0"/></g><path d="m216.210938 303.296875h295.789062v-143.140625h-136.132812v-17.015625h16.015624v-47.046875h-56.054687v-51.65625l-36.429687-36.429688h-129.230469v15.015626h123.011719l27.632812 27.632812v45.4375h-96.59375v15.015625h48.546875v17.015625h-53.445313l-32.03125-32.03125h-19.125v15.015625h12.90625l32.03125 32.03125h19.625v17.015625h-152.148437v143.140625h16.015625v160.15625h399.390625v-143.640625h-15.015625v128.625h-369.359375v-145.140625h80.578125v-15.015625h-96.59375v-113.109375h401.390625v113.109375h-280.773437zm31.53125-160.15625h40.039062v-32.03125h89.085938v17.015625h-72.570313v15.015625h56.554687v17.015625h-113.109374zm0 0"/><path d="m216.210938 192.1875h176.171874v15.015625h-176.171874zm0 0"/><path d="m0 0v135.132812h175.671875v-135.132812zm0 0" fill="#72e9cd"/><path d="m128.125 88.085938h16.015625v15.015624h-16.015625zm0 0" fill="#fff"/></svg>