<svg height="512pt" viewBox="0 -16 512 512" width="512pt" xmlns="http://www.w3.org/2000/svg"><path d="m186.972656 103.203125h-14.242187l-20.433594-20.433594v-43.191406h15.03125v36.964844l11.628906 11.628906h1.789063l11.628906-11.628906v-36.964844h15.03125v43.191406zm0 0"/><path d="m263.515625 103.203125h-47.09375v-63.125h47.09375zm-32.0625-15.03125h17.03125v-33.0625h-17.03125zm0 0"/><path d="m272.03125 40.078125h48.09375v15.03125h-48.09375zm0 0"/><path d="m368.21875 103.203125h-39.578125v-63.125h39.578125v15.03125h-24.546875v33.0625h24.546875zm0 0"/><path d="m288.5625 47.59375h15.03125v56.109375h-15.03125zm0 0"/><path d="m336.15625 64.125h32.0625v15.03125h-32.0625zm0 0"/><g fill="#72e9cd"><path d="m464.40625 288.5625v95.6875h40.078125v-95.6875zm0 0"/><path d="m7.515625 288.5625v63.625h40.078125v-63.625zm0 0"/><path d="m95.6875 216.421875v63.625h40.078125v-63.625zm0 0"/><path d="m376.234375 216.421875v63.625h40.078125v-63.625zm0 0"/><path d="m87.671875 64.125h16.03125v15.03125h-16.03125zm0 0"/><path d="m119.734375 64.125h16.03125v15.03125h-16.03125zm0 0"/><path d="m384.25 64.125h16.03125v15.03125h-16.03125zm0 0"/><path d="m416.3125 64.125h16.03125v15.03125h-16.03125zm0 0"/><path d="m175.84375 176.84375v111.21875h84.558594l32.0625 32.0625h18.644531v-32.0625h24.046875v-111.21875zm0 0"/><path d="m72.140625 304.59375v111.21875h24.046875v32.0625h18.644531l32.0625-32.0625h84.558594v-111.21875zm0 0"/></g><path d="m464.90625 143.28125v16.53125h15.03125v-159.8125h-439.859375v159.8125h15.03125v-16.53125h33.0625v136.765625h15.03125v-152.796875h41.078125v25.046875h-24.546875v15.03125h39.578125v-24.046875h193.375v24.046875h39.578125v-15.03125h-24.546875v-25.046875h41.078125v152.796875h15.03125v-136.765625zm-112.21875-31.0625v16.03125h-193.375v-16.03125h-71.140625v16.03125h-33.0625v-113.21875h409.796875v113.21875h-41.078125v-16.03125zm0 0"/><path d="m456.890625 256h15.03125v128.25h-15.03125zm0 0"/><path d="m440.859375 184.359375v55.109375h39.578125v-15.03125h-24.546875v-25.046875h41.078125v184.859375h15.03125v-199.890625zm0 0"/><path d="m40.078125 256h15.03125v96.1875h-15.03125zm0 0"/><path d="m0 352.1875h15.03125v-152.796875h41.078125v25.046875h-24.546875v15.03125h39.578125v-55.109375h-71.140625zm0 0"/><path d="m128.25 183.859375h15.03125v96.1875h-15.03125zm0 0"/><path d="m368.71875 183.859375h15.03125v96.1875h-15.03125zm0 0"/><path d="m264.515625 447.875h84.558594l32.0625 32.0625h18.644531v-32.0625h24.046875v-111.21875h-159.3125zm15.03125-96.1875h129.25v81.15625h-24.046875v29.453125l-29.449219-29.453125h-75.753906zm0 0"/></svg>