<svg height="512pt" viewBox="0 0 512 512" width="512pt" xmlns="http://www.w3.org/2000/svg"><path d="m455.445312 287.78125h-15.015624v120.117188h39.539062v-120.117188zm0 0" fill="#72e9cd"/><path d="m344.335938 287.78125h-24.523438v120.117188h39.539062v-120.117188zm0 0" fill="#72e9cd"/><path d="m511.5 400.390625h-24.023438v-120.117187h-64.0625v-17.015626h48.046876v-127.125h-119.617188c-12.972656 0-23.523438 10.550782-23.523438 23.523438v103.601562h48.046876v17.015626h-64.0625v120.117187h-24.023438v87.085937h48.046875v24.523438h15.015625v-48.546875h97.09375v48.546875h15.015625v-24.523438h48.046875zm-144.140625-171.773437v-37.429688h65.0625v37.429688l-27.632813 27.632812h-9.796874zm66.671875 19.625 13.40625-13.40625v-43.648438h9.007812v57.054688zm-90.695312-88.585938c0-4.691406 3.816406-8.507812 8.507812-8.507812h104.601562v25.023437h-104.101562v58.664063l13.40625 13.40625h-22.414062zm-16.015626 135.632812h64.0625v-24.023437h17.015626v24.023437h64.0625v105.101563h-145.140626zm169.164063 120.117188v9.007812h-193.1875v-9.007812zm-33.03125 57.054688v-24.023438h-127.125v24.023438h-33.03125v-33.03125h193.1875v33.03125zm0 0"/><path d="m351.84375 320.3125h96.09375v15.015625h-96.09375zm0 0"/><path d="m375.867188 480.46875h16.015624v15.015625h-16.015624zm0 0" fill="#72e9cd"/><path d="m407.898438 480.46875h16.015624v15.015625h-16.015624zm0 0" fill="#72e9cd"/><path d="m64.0625 234.835938 24.023438 24.023437v28.921875h15.015624v-16.515625h17.015626v16.515625h15.015624v-28.921875l24.023438-24.023437v-44.878907c9.300781-3.140625 16.015625-11.945312 16.015625-22.292969v-31.53125h-111.609375c-12.972656 0-23.523438 10.550782-23.523438 23.523438v35.140625l24.023438 24.023437zm80.078125-6.21875-27.632813 27.632812h-9.796874l-27.632813-27.632812v-37.429688h65.0625zm-89.085937-40.039063v-28.921875c0-4.691406 3.816406-8.507812 8.507812-8.507812h96.59375v16.515624c0 4.691407-3.816406 8.507813-8.507812 8.507813h-87.585938v21.414063zm0 0"/><path d="m223.21875 400.390625h-24.023438v-120.117187h-47.546874v15.015624h32.53125v105.101563h-17.015626v-72.570313h-15.015624v72.570313h-8.714844l-16.039063-72.167969 7.351563-22.050781-14.242188-4.75-6.296875 18.890625h-5.195312l-6.296875-18.890625-14.242188 4.75 7.347656 22.050781-16.035156 72.167969h-8.714844v-72.570313h-15.015624v72.570313h-17.015626v-105.101563h32.53125v-15.015624h-47.546874v120.117187h-24.023438v87.085937h48.046875v24.523438h15.015625v-48.546875h97.09375v48.546875h15.015625v-24.523438h48.046875zm-15.015625 24.023437h-86.476563l9.007813-9.007812h77.46875zm-98.578125-89.085937h3.96875l13.816406 62.167969-15.800781 15.800781-15.800781-15.800781zm-17.140625 80.078125 9.007813 9.007812h-86.476563v-9.007812zm82.6875 57.054688v-24.023438h-127.125v24.023438h-33.03125v-33.03125h193.1875v33.03125zm0 0"/><g fill="#72e9cd"><path d="m140.53125 264.257812-28.921875 28.921876-28.921875-28.921876h-18.625v34.640626l23.523438 23.523437 24.023437-24.023437 24.023437 24.023437 23.523438-23.523437v-34.640626zm0 0"/><path d="m87.585938 480.46875h16.015624v15.015625h-16.015624zm0 0"/><path d="m119.617188 480.46875h16.015624v15.015625h-16.015624zm0 0"/><path d="m80.078125 95.09375h24.023437v32.03125h18.625l32.03125-32.03125h68.460938v-95.09375h-143.140625zm0 0"/><path d="m288.28125 0v95.09375h68.460938l32.03125 32.03125h18.625v-32.03125h24.023437v-95.09375zm0 0"/></g></svg>