<svg height="512pt" viewBox="-64 0 512 512" width="512pt" xmlns="http://www.w3.org/2000/svg"><path d="m336.328125 240.234375v16.015625h-17.015625v-81.078125h17.015625v48.546875h15.015625v-63.5625h-32.03125v-16.015625h-47.046875v24.023437h-32.03125v32.03125h-32.03125v151.648438c0 8.554688 6.960937 15.515625 15.515625 15.515625h16.515625v24.523437h15.015625v-39.539062h-31.53125c-.277344 0-.5-.226562-.5-.5v-136.632812h17.015625v56.054687h96.09375v17.015625h-24.523437c-8.554688 0-15.515626 6.960938-15.515626 15.515625v40.039063h15.015626v-40.039063c0-.277344.222656-.5.5-.5h39.539062v-48.046875h17.015625v96.59375c0 .273438-.226563.5-.5.5h-39.539063v39.539062h15.015626v-24.523437h24.523437c8.554687 0 15.515625-6.960937 15.515625-15.515625v-111.609375zm-32.03125-81.078125v97.09375h-17.015625v-97.09375zm-49.046875 24.023438h17.015625v73.070312h-17.015625zm0 0"/><path d="m224.21875 384.375v127.625h135.132812v-127.625zm0 0" fill="#72e9cd"/><path d="m312.304688 415.90625h15.015624v16.015625h-15.015624zm0 0" fill="#fff"/><path d="m143.140625 56.054688v-32.03125h-32.03125v-24.023438h-47.046875v16.015625h-32.03125v63.5625h15.015625v-48.546875h17.015625v81.078125h-17.015625v-16.015625h-47.046875v111.609375c0 8.554687 6.960938 15.515625 15.515625 15.515625h24.523437v24.523438h15.015626v-39.539063h-39.539063c-.277344 0-.5-.226563-.5-.5v-96.59375h17.015625v48.046875h39.539062c.273438 0 .5.222656.5.5v40.039062h15.015626v-40.039062c0-8.554688-6.960938-15.515625-15.515626-15.515625h-24.523437v-17.015625h96.09375v-56.054688h17.015625v136.632813c0 .273437-.226562.5-.5.5h-31.53125v39.539063h15.015625v-24.523438h16.515625c8.554688 0 15.515625-6.960938 15.515625-15.515625v-151.648437zm-64.0625-41.039063h17.015625v97.09375h-17.015625zm49.046875 97.09375h-17.015625v-73.070313h17.015625zm0 0"/><path d="m24.023438 240.234375v127.625h135.132812v-127.625zm0 0" fill="#72e9cd"/><path d="m112.109375 271.765625h15.015625v16.015625h-15.015625zm0 0" fill="#fff"/></svg>