<svg height="512pt" viewBox="-24 0 512 512" width="512pt" xmlns="http://www.w3.org/2000/svg"><g fill="#72e9cd"><path d="m383.375 272.265625h-15.015625v200.195313h55.554687v-200.195313zm0 0"/><path d="m80.078125 272.265625h-40.539063v200.195313h55.554688v-200.195313zm0 0"/><path d="m192.1875 272.265625h-40.539062v200.195313h55.554687v-200.195313zm0 0"/><path d="m263.757812 272.265625h-7.507812v200.195313h55.554688v-200.195313zm0 0"/><path d="m191.6875 184.679688h16.015625v15.015624h-16.015625zm0 0"/><path d="m223.71875 184.679688h16.015625v15.015624h-16.015625zm0 0"/><path d="m255.75 184.679688h16.015625v15.015624h-16.015625zm0 0"/><path d="m303.296875 8.507812h-71.570313v63.0625h71.570313zm0 0"/></g><path d="m463.453125 279.773438v-47.046876h-37.265625l-186.953125-124.636718v-108.089844h-15.015625v108.089844l-186.953125 124.636718h-37.265625v47.046876h32.03125v185.179687h-32.03125v47.046875h463.453125v-47.046875h-32.03125v-185.179687zm-231.726563-158.640626 167.390626 111.59375h-334.785157zm-216.710937 126.609376h433.421875v17.015624h-433.421875zm32.03125 32.03125h97.09375v168.664062h15.015625v-168.664062h145.140625v185.179687h-257.25zm401.390625 217.210937h-433.421875v-17.015625h433.421875zm-32.03125-32.03125h-97.09375v-185.179687h97.09375zm0 0"/></svg>