<svg height="512pt" viewBox="0 -80 512 512" width="512pt" xmlns="http://www.w3.org/2000/svg"><path d="m408 212.894531-48 48-24-24-34.605469 34.605469 58.605469 58.605469 82.605469-82.605469zm0 0" fill="#72e9cd"/><path d="m287.5 351h-114.605469l-32-32h-20.894531v-15h27.105469l32 32h93.394531v-104.5c0-4.6875-3.8125-8.5-8.5-8.5h-71.5v-39.5c0-4.6875-3.8125-8.5-8.5-8.5h-8.5v35.605469l-20.394531 20.394531h-35.105469v-15h28.894531l11.605469-11.605469v-44.394531h23.5c12.957031 0 23.5 10.542969 23.5 23.5v24.5h56.5c12.957031 0 23.5 10.542969 23.5 23.5zm0 0"/><path d="m0 200v151h127.5v-151zm0 0" fill="#72e9cd"/><path d="m80 304h16v15h-16zm0 0" fill="#fff"/><path d="m351.5 191h-23.5c-12.957031 0-23.5-10.542969-23.5-23.5v-24.5h-80v-119.5c0-12.957031 10.542969-23.5 23.5-23.5h91.105469l32 32h20.894531v15h-27.105469l-32-32h-84.894531c-4.6875 0-8.5 3.8125-8.5 8.5v104.5h80v39.5c0 4.6875 3.8125 8.5 8.5 8.5h8.5v-35.605469l20.394531-20.394531h35.105469v15h-28.894531l-11.605469 11.605469zm0 0"/><path d="m384.5 0v151h127.5v-151zm0 0" fill="#72e9cd"/><path d="m416 104h16v15h-16zm0 0" fill="#fff"/><path d="m210.605469 63.5-34.605469-34.605469-24 24-24-24-34.605469 34.605469 24 24-24 24 34.605469 34.605469 24-24 24 24 34.605469-34.605469-24-24zm0 0" fill="#72e9cd"/></svg>