<svg height="512pt" viewBox="0 -48 512 512" width="512pt" xmlns="http://www.w3.org/2000/svg"><path d="m315.414062 207.203125h-18.625v-32.03125h-24.023437v-175.171875h239.234375v175.171875h-164.554688zm-27.632812-47.046875h24.023438v29.421875l29.421874-29.421875h155.757813v-145.140625h-209.203125zm0 0"/><path d="m451.046875 63.5625-34.640625-34.640625-24.023438 24.023437-24.023437-24.023437-34.640625 34.640625 24.023438 24.023438-24.023438 24.023437 34.640625 34.640625 24.023437-24.023438 24.023438 24.023438 34.640625-34.640625-24.023437-24.023437zm0 0" fill="#72e9cd"/><path d="m232.226562 415.40625h-23.523437v-44.4375l-11.617187-11.617188h-28.921876v-15.015624h35.140626l20.414062 20.414062v35.640625h8.507812c4.691407 0 8.507813-3.816406 8.507813-8.507813v-39.539062h80.078125v-104.601562c0-4.691407-3.816406-8.507813-8.507812-8.507813h-84.976563l-32.03125 32.03125h-27.132813v-15.015625h20.914063l32.03125-32.03125h91.195313c12.972656 0 23.523437 10.550781 23.523437 23.523438v119.617187h-80.078125v24.523437c0 12.96875-10.550781 23.523438-23.523438 23.523438zm0 0"/><path d="m0 224.21875v151.148438h175.671875v-151.148438zm0 0" fill="#72e9cd"/><path d="m128.125 328.320312h16.015625v15.015626h-16.015625zm0 0" fill="#fff"/></svg>