<svg height="512pt" fill="#4a5568" viewBox="-72 0 512 512" width="512pt" xmlns="http://www.w3.org/2000/svg"><g fill="#72e9cd"><path d="m136.132812 152.148438h79.078126v79.078124h-79.078126zm0 0"/><path d="m136.132812 40.039062h79.078126v79.078126h-79.078126zm0 0"/><path d="m143.640625 264.257812v79.078126h71.570313v-79.078126zm0 0"/></g><path d="m175.671875 210.3125-21.324219-21.324219 10.617188-10.617187 10.707031 10.707031 34.730469-34.730469 10.617187 10.617188zm0 0"/><path d="m167.664062 72.070312h16.015626v15.015626h-16.015626zm0 0"/><path d="m167.664062 296.289062h16.015626v15.015626h-16.015626zm0 0"/><path d="m231.726562 104.101562h64.0625v15.015626h-64.0625zm0 0"/><path d="m231.726562 152.148438h96.09375v15.015624h-96.09375zm0 0"/><path d="m231.726562 184.179688h96.09375v15.015624h-96.09375zm0 0"/><path d="m231.726562 216.210938h64.0625v15.015624h-64.0625zm0 0"/><path d="m231.726562 264.257812h96.09375v15.015626h-96.09375zm0 0"/><path d="m231.726562 296.289062h96.09375v15.015626h-96.09375zm0 0"/><path d="m231.726562 328.320312h64.0625v15.015626h-64.0625zm0 0"/><path d="m290.890625 0h-194.796875v208.203125h-51.65625l-36.429688 36.429687v129.230469h15.015626v-123.011719l27.632812-27.632812h45.4375v96.59375h15.015625v-48.546875h17.015625v53.445313l-32.03125 32.03125v19.125h15.015625v-12.90625l32.03125-32.03125v-74.679688h-32.03125v-241.234375h169.164063v25.023437h-48.546876v15.015626h48.546876v17.015624h-48.546876v15.015626h120.617188v281.273437h-200.695312v15.015625h215.710937v-306.90625zm4.398437 25.632812 46.4375 46.4375h-46.4375zm0 0"/><path d="m0 368.359375v143.640625h135.132812v-143.640625zm0 0" fill="#72e9cd"/><path d="m88.085938 399.890625h15.015624v16.015625h-15.015624zm0 0" fill="#fff"/></svg>