<svg height="512pt" viewBox="-80 0 512 512" width="512pt" xmlns="http://www.w3.org/2000/svg"><g fill="#72e9cd"><path d="m256.5 184.359375-57.109375-57.109375v-7.515625h-15.03125v79.65625h79.65625v-15.03125zm0 0"/><path d="m39.578125 192.375h16.03125v15.03125h-16.03125zm0 0"/><path d="m71.640625 192.375h16.03125v15.03125h-16.03125zm0 0"/><path d="m103.703125 192.375h16.03125v15.03125h-16.03125zm0 0"/></g><path d="m271.53125 188.761719-76.542969-76.542969h-194.988281v383.75h40.078125v16.03125h18.640625l12.921875-12.917969 12.917969 12.917969h18.644531v-16.03125h168.328125zm-15.03125 292.175781h-153.296875v-16.53125h-15.03125v29.953125l-16.53125-16.53125-16.53125 16.53125v-54h-15.03125v40.578125h-25.046875v-353.6875h173.730469l67.738281 67.738281zm0 0"/><path d="m39.578125 232.453125h80.15625v15.03125h-80.15625zm0 0"/><path d="m143.78125 360.703125h80.15625v15.03125h-80.15625zm0 0"/><path d="m207.40625 418.304688v-16.03125l-24.046875 16.03125v-16.03125l-35.730469 23.820312 8.335938 12.503906 12.363281-8.242187v16.03125l24.046875-16.03125v16.03125l35.730469-23.820313-8.335938-12.503906zm0 0"/><path d="m39.578125 264.515625h184.359375v15.03125h-184.359375zm0 0"/><path d="m39.578125 296.578125h184.359375v15.03125h-184.359375zm0 0"/><path d="m39.578125 328.640625h184.359375v15.03125h-184.359375zm0 0"/><path d="m71.640625 376.734375c-21.824219 0-39.578125 17.757813-39.578125 39.578125 0 21.824219 17.753906 39.578125 39.578125 39.578125 21.820313 0 39.578125-17.753906 39.578125-39.578125 0-21.820312-17.757812-39.578125-39.578125-39.578125zm0 0" fill="#72e9cd"/><path d="m296.578125 0v39.578125h47.09375v-39.578125zm0 0" fill="#72e9cd"/><path d="m288.5625 224.4375v50.707031l31.5625 31.558594 31.5625-31.558594v-50.707031zm0 0" fill="#72e9cd"/><path d="m351.6875 32.0625h-63.125v32.0625h-32.0625v87.671875h15.03125v-72.640625h17.03125v195.988281l24.046875 24.046875v12.917969h15.03125v-12.917969l24.046875-24.046875zm-48.09375 15.03125h33.0625v17.03125h-33.0625zm16.53125 238.359375-16.53125-16.535156v-189.761719h33.0625v189.761719zm0 0"/></svg>