<svg height="512pt" viewBox="-155 0 512 512" width="512pt" xmlns="http://www.w3.org/2000/svg"><path d="m127.351562 225.957031v23.878907h-16.914062v-88.550782h16.914062v48.253906h14.925782v-63.179687h-46.761719v55.71875h-95.515625v134.8125c0 8.503906 6.917969 15.421875 15.421875 15.421875h16.417969v24.375h14.921875v-39.296875h-31.339844c-.273437 0-.496094-.226563-.496094-.5v-72.132813h112.425781v8.953126h-24.375c-8.503906 0-15.421874 6.917968-15.421874 15.421874v39.800782h14.921874v-39.800782c0-.273437.226563-.496093.5-.496093h39.300782v-47.757813h16.914062v96.011719c0 .273437-.226562.5-.5.5h-39.300781v39.296875h14.925781v-24.375h24.375c8.503906 0 15.421875-6.917969 15.421875-15.421875v-110.933594zm-31.835937 23.878907h-16.914063v-32.835938h16.914063zm-31.839844 0h-16.914062v-32.835938h16.914062zm-48.75-32.835938h16.914063v32.835938h-16.914063zm0 0"/><path d="m15.917969 369.226562v142.773438h134.316406v-142.773438zm0 0" fill="#72e9cd"/><path d="m103.472656 400.566406h14.925782v15.917969h-14.925782zm0 0" fill="#fff"/><path d="m166.652344 0-47.757813 47.757812-23.878906-23.878906-34.429687 34.429688 58.308593 58.3125 82.1875-82.191406zm0 0" fill="#72e9cd"/></svg>