<svg height="512pt" fill="#4a5568" viewBox="-56 0 512 512" width="512pt" xmlns="http://www.w3.org/2000/svg"><g fill="#E45C61"><path d="m111.71875 168.328125h16.03125v15.03125h-16.03125zm0 0"/><path d="m143.78125 168.328125h16.03125v15.03125h-16.03125zm0 0"/><path d="m175.84375 168.328125h16.03125v15.03125h-16.03125zm0 0"/><path d="m248.484375 0v39.578125h47.09375v-39.578125zm0 0"/><path d="m241.972656 226.398438v48.289062l30.058594 30.058594 30.058594-30.058594v-48.289062zm0 0"/></g><path d="m111.71875 208.40625h72.140625v15.03125h-72.140625zm0 0"/><path d="m111.71875 272.53125h112.21875v15.03125h-112.21875zm0 0"/><path d="m111.71875 304.59375h136.265625v15.03125h-136.265625zm0 0"/><path d="m335.65625 240.46875v-17.03125h48.09375v-79.65625c0-17.402344-14.160156-31.5625-31.5625-31.5625h-48.59375v-80.15625h-63.125v32.0625h-32.0625v87.671875h15.03125v-24.546875h17.03125v113.21875h-128.75v15.03125h128.75v19.644531l24.046875 24.046875v12.917969h15.03125v-12.917969l24.046875-24.046875v-147.894531h21.722656c-2.972656 4.808594-4.691406 10.472656-4.691406 16.53125v165.214844l-27.660156 27.660156h-69.027344v15.03125h54l-78.046875 78.046875-120.734375-120.738281v-165.214844c0-9.117188 7.414062-16.53125 16.53125-16.53125h96.1875v-15.03125h-96.1875c-17.402344 0-31.5625 14.160156-31.5625 31.5625v96.6875h-64.125v271.53125h399.78125v-271.53125zm-80.15625-193.375h33.0625v17.03125h-33.0625zm-32.0625 65.125v-33.0625h17.03125v33.0625zm48.59375 173.234375-16.53125-16.535156v-189.761719h33.0625v189.761719zm2.613281 90.78125 110.105469-110.109375v220.21875zm94.074219-232.453125v64.625h-33.0625v-64.625c0-9.117188 7.414062-16.53125 16.53125-16.53125s16.53125 7.414062 16.53125 16.53125zm-33.0625 111.71875h38.46875l-38.46875 38.46875zm-71.640625 131.363281 110.109375 110.105469h-348.46875l110.109375-110.105469 64.125 64.125zm-138.878906-10.628906-110.105469 110.109375v-220.21875zm-61.011719-82.265625-38.46875-38.46875h38.46875zm0 0"/></svg>