<svg height="512pt" viewBox="0 -16 512 511" width="512pt" xmlns="http://www.w3.org/2000/svg"><path d="m439.5 464.5v-185h33v168.5h15v-183.5h-63v200h-17v-376h-63v376h-17v-136h-63v119.5h15v-104.5h33v121h-65v-248h-63v248h-17v-184h-63v184h-65v-297h33v280.5h15v-295.5h-63v312h-24.5v15h512v-15zm-80-361h33v361h-33zm-160 128h33v233h-33zm-80 64h33v169h-33zm0 0"/><path d="m87.5 135.5h-63v-18.605469l18.195312-18.199219 10.609376 10.609376-11.199219 11.195312h27.789062l-11.199219-11.195312 10.609376-10.609376 18.195312 18.199219zm0 0"/><path d="m167.5 263.5h-63v-18.605469l18.195312-18.199219 10.609376 10.609376-11.199219 11.195312h27.789062l-11.199219-11.195312 10.609376-10.609376 18.195312 18.199219zm0 0"/><path d="m247.5 199.5h-63v-18.605469l18.195312-18.199219 10.609376 10.609376-11.199219 11.195312h27.789062l-11.199219-11.195312 10.609376-10.609376 18.195312 18.199219zm0 0"/><path d="m327.5 311.5h-63v-18.605469l18.195312-18.199219 10.609376 10.609376-11.199219 11.195312h27.789062l-11.199219-11.195312 10.609376-10.609376 18.195312 18.199219zm0 0"/><path d="m407.5 71.5h-63v-18.605469l18.195312-18.199219 10.609376 10.609376-11.199219 11.195312h27.789062l-11.199219-11.195312 10.609376-10.609376 18.195312 18.199219zm0 0"/><path d="m487.5 247.5h-63v-18.605469l18.195312-18.199219 10.609376 10.609376-11.199219 11.195312h27.789062l-11.199219-11.195312 10.609376-10.609376 18.195312 18.199219zm0 0"/><g fill="#72e9cd"><path d="m56 64.5c-12.957031 0-23.5 10.542969-23.5 23.5s10.542969 23.5 23.5 23.5 23.5-10.542969 23.5-23.5-10.542969-23.5-23.5-23.5zm0 0"/><path d="m136 192.5c-12.957031 0-23.5 10.542969-23.5 23.5s10.542969 23.5 23.5 23.5 23.5-10.542969 23.5-23.5-10.542969-23.5-23.5-23.5zm0 0"/><path d="m216 128.5c-12.957031 0-23.5 10.542969-23.5 23.5s10.542969 23.5 23.5 23.5 23.5-10.542969 23.5-23.5-10.542969-23.5-23.5-23.5zm0 0"/><path d="m296 240.5c-12.957031 0-23.5 10.542969-23.5 23.5s10.542969 23.5 23.5 23.5 23.5-10.542969 23.5-23.5-10.542969-23.5-23.5-23.5zm0 0"/><path d="m376 .5c-12.957031 0-23.5 10.542969-23.5 23.5s10.542969 23.5 23.5 23.5 23.5-10.542969 23.5-23.5-10.542969-23.5-23.5-23.5zm0 0"/><path d="m456 176.5c-12.957031 0-23.5 10.542969-23.5 23.5s10.542969 23.5 23.5 23.5 23.5-10.542969 23.5-23.5-10.542969-23.5-23.5-23.5zm0 0"/><path d="m128 432.5h16v15h-16zm0 0"/><path d="m288 360.5h16v15h-16zm0 0"/><path d="m368 120.5h16v15h-16zm0 0"/></g></svg>