<svg height="512pt" viewBox="0 0 512 512" width="512pt" xmlns="http://www.w3.org/2000/svg"><path d="m168.164062 216.210938h15.015626v56.054687h-15.015626zm0 0"/><path d="m200.195312 216.210938h15.015626v56.054687h-15.015626zm0 0"/><path d="m232.226562 216.210938h15.015626v56.054687h-15.015626zm0 0"/><path d="m264.257812 216.210938h15.015626v56.054687h-15.015626zm0 0"/><path d="m296.289062 216.210938h15.015626v56.054687h-15.015626zm0 0"/><path d="m328.320312 216.210938h15.015626v56.054687h-15.015626zm0 0"/><g fill="#72e9cd"><path d="m215.710938 328.820312h16.015624v15.015626h-16.015624zm0 0"/><path d="m247.742188 328.820312h16.015624v15.015626h-16.015624zm0 0"/><path d="m279.773438 328.820312h16.015624v15.015626h-16.015624zm0 0"/><path d="m255.75 8.507812v63.0625h71.570312v-63.0625zm0 0"/></g><path d="m263.257812 96.917969v-96.917969h-15.015624v96.917969c-44.792969 3.824219-80.078126 41.496093-80.078126 87.261719h15.015626c0-40.015626 32.554687-72.570313 72.570312-72.570313s72.570312 32.554687 72.570312 72.570313h15.015626c0-45.765626-35.285157-83.4375-80.078126-87.261719zm0 0"/><path d="m0 328.820312v47.046876h119.617188v-47.046876zm0 0" fill="#72e9cd"/><path d="m391.882812 328.820312v47.046876h119.617188v-47.046876zm0 0" fill="#72e9cd"/><path d="m80.078125 368.359375h15.015625v80.078125h-15.015625zm0 0"/><path d="m495.484375 464.953125v-96.59375h-15.015625v96.59375h-17.015625v-96.59375h-15.015625v96.59375h-17.015625v-96.59375h-15.015625v96.59375h-17.015625v-160.65625h-15.015625v160.65625h-65.0625v-64.5625h-15.015625v64.5625h-17.015625v-64.5625h-15.015625v64.5625h-33.03125v-64.5625h-15.015625v64.5625h-17.015625v-64.5625h-15.015625v64.5625h-65.0625v-160.65625h-15.015625v160.65625h-49.046875v-96.59375h-15.015625v96.59375h-17.015625v-96.59375h-15.015625v96.59375h-16.015625v47.046875h511.5v-47.046875zm1 32.03125h-481.46875v-17.015625h481.46875zm0 0"/><path d="m144.140625 176.671875h223.21875v47.046875h-223.21875zm0 0" fill="#72e9cd"/><path d="m168.164062 360.851562h175.171876v47.046876h-175.171876zm0 0" fill="#72e9cd"/><path d="m88.085938 264.757812h335.328124v47.046876h-335.328124zm0 0" fill="#72e9cd"/></svg>