<svg height="512pt" viewBox="0 -72 512 512" width="512pt" xmlns="http://www.w3.org/2000/svg"><path d="m151.648438 144.140625v15.015625h32.53125v112.609375h15.015624v-127.625zm0 0"/><path d="m56.054688 191.6875h15.015624v80.078125h-15.015624zm0 0"/><path d="m152.148438 191.6875h15.015624v80.078125h-15.015624zm0 0"/><path d="m24.023438 271.765625h15.015624v-112.609375h32.53125v-15.015625h-47.546874zm0 0"/><path d="m64.0625 98.703125 24.023438 24.023437v28.921876h15.015624v-16.515626h17.015626v16.515626h15.015624v-28.921876l24.023438-24.023437v-44.878906c9.300781-3.140625 16.015625-11.949219 16.015625-22.292969v-31.53125h-111.609375c-12.972656 0-23.523438 10.550781-23.523438 23.523438v35.140624l24.023438 24.023438zm80.078125-6.21875-27.632813 27.632813h-9.796874l-27.632813-27.632813v-37.429687h65.0625zm-89.085937-40.039063v-28.921874c0-4.691407 3.816406-8.507813 8.507812-8.507813h96.59375v16.515625c0 4.691406-3.816406 8.507812-8.507812 8.507812h-87.585938v21.414063zm0 0"/><path d="m134.746094 170.039062-14.242188-4.75-6.296875 18.890626h-5.195312l-6.296875-18.890626-14.242188 4.75 7.347656 22.050782-16.457031 74.0625 32.246094 32.246094 32.246094-32.246094-16.457031-74.0625zm-7.335938 91.324219-15.800781 15.800781-15.800781-15.800781 13.816406-62.167969h3.96875zm0 0"/><path d="m140.53125 128.125-28.921875 28.921875-28.921875-28.921875h-18.625v34.640625l23.523438 23.523437 24.023437-24.023437 24.023437 24.023437 23.523438-23.523437v-34.640625zm0 0" fill="#72e9cd"/><path d="m0 312.304688h167.664062v55.054687h-167.664062zm0 0" fill="#72e9cd"/><path d="m223.21875 367.359375h-63.0625v-55.054687h63.0625zm-48.046875-15.015625h33.03125v-25.023438h-33.03125zm0 0"/><path d="m287.78125 312.304688h64.0625v55.054687h-64.0625zm0 0" fill="#72e9cd"/><path d="m512 367.359375h-167.664062v-55.054687h167.664062zm-152.648438-15.015625h137.632813v-25.023438h-137.632813zm0 0"/><path d="m311.304688 119.117188h-47.546876v-15.015626h32.53125v-9.007812h-32.03125v-39.039062h47.546876v15.015624h-32.53125v9.007813h32.03125zm0 0"/><path d="m226.828125 119.117188h-14.226563l-20.414062-20.414063v-43.148437h15.015625v36.929687l11.617187 11.617187h1.789063l11.617187-11.617187v-36.929687h15.015626v43.148437zm0 0"/><path d="m455.445312 151.648438h-15.015624v120.117187h39.539062v-120.117187zm0 0" fill="#72e9cd"/><path d="m344.335938 151.648438h-24.523438v120.117187h39.539062v-120.117187zm0 0" fill="#72e9cd"/><path d="m423.414062 144.140625v-17.015625h48.046876v-127.125h-119.617188c-12.972656 0-23.523438 10.550781-23.523438 23.523438v103.601562h48.046876v17.015625h-64.0625v127.625h15.015624v-112.609375h64.0625v-24.023438h17.015626v24.023438h64.0625v112.609375h15.015624v-127.625zm10.617188-32.03125 13.40625-13.40625v-43.648437h9.007812v57.054687zm-90.695312-88.585937c0-4.691407 3.816406-8.507813 8.507812-8.507813h104.601562v25.023437h-104.101562v58.664063l13.40625 13.40625h-22.414062zm51.65625 96.59375-27.632813-27.632813v-37.429687h65.0625v37.429687l-27.632813 27.632813zm0 0"/><path d="m351.84375 184.179688h96.09375v15.015624h-96.09375zm0 0"/><path d="m215.710938 280.273438h16.015624v15.015624h-16.015624zm0 0"/><path d="m247.742188 280.273438h16.015624v15.015624h-16.015624zm0 0"/><path d="m279.773438 280.273438h16.015624v15.015624h-16.015624zm0 0"/></svg>