<svg height="512pt" viewBox="-148 0 512 512" width="512pt" xmlns="http://www.w3.org/2000/svg"><path d="m152 224.5v24h-17v-89h17v48.5h15v-63.5h-47v56h-96v135.5c0 8.546875 6.953125 15.5 15.5 15.5h16.5v24.5h15v-39.5h-31.5c-.277344 0-.5-.226562-.5-.5v-72.5h113v9h-24.5c-8.546875 0-15.5 6.953125-15.5 15.5v40h15v-40c0-.273438.222656-.5.5-.5h39.5v-48h17v96.5c0 .273438-.222656.5-.5.5h-39.5v39.5h15v-24.5h24.5c8.546875 0 15.5-6.953125 15.5-15.5v-111.5zm-32 24h-17v-33h17zm-32 0h-17v-33h17zm-49-33h17v33h-17zm0 0"/><path d="m40 368.5h135v143.5h-135zm0 0" fill="#72e9cd"/><path d="m128 400h15v16h-15zm0 0" fill="#fff"/><path d="m34.605469 63.5h-14.210938l-20.394531-20.394531v-43.105469h15v36.894531l11.605469 11.605469h1.789062l11.605469-11.605469v-36.894531h15v43.105469zm0 0"/><path d="m111 63.5h-47v-63h47zm-32-15h17v-33h-17zm0 0"/><path d="m119.5.5h48v15h-48zm0 0"/><path d="m215.5 63.5h-39.5v-63h39.5v15h-24.5v33h24.5zm0 0"/><path d="m136 8h15v56h-15zm0 0"/><path d="m183.5 24.5h32v15h-32zm0 0"/><g fill="#72e9cd"><path d="m92.800781 106.695312 24 24-10.605469 10.605469-24-24zm0 0"/><path d="m194.210938 106.6875 10.605468 10.605469-24 24-10.605468-10.605469zm0 0"/><path d="m136 96h15v32h-15zm0 0"/></g></svg>