<svg height="512pt" viewBox="0 -88 512 512" width="512pt" xmlns="http://www.w3.org/2000/svg"><g fill="#72e9cd"><path d="m215.921875 232.453125h16.03125v15.03125h-16.03125zm0 0"/><path d="m247.984375 232.453125h16.03125v15.03125h-16.03125zm0 0"/><path d="m280.046875 232.453125h16.03125v15.03125h-16.03125zm0 0"/><path d="m200.390625 272.53125v18.644531l20.433594 20.433594h70.351562l20.433594-20.433594v-18.644531zm0 0"/></g><path d="m184.359375 164.714844-11.628906 11.628906h-1.789063l-11.628906-11.628906v-36.964844h-15.03125v43.191406l20.433594 20.433594h14.242187l20.433594-20.433594v-43.191406h-15.03125zm0 0"/><path d="m208.40625 191.375h47.09375v-63.125h-47.09375zm15.03125-48.09375h17.03125v33.0625h-17.03125zm0 0"/><path d="m264.015625 143.28125h16.53125v48.59375h15.03125v-48.59375h16.53125v-15.03125h-48.09375zm0 0"/><path d="m360.203125 176.34375h-24.546875v-9.015625h24.546875v-15.03125h-24.546875v-9.015625h24.546875v-15.03125h-39.578125v63.125h39.578125zm0 0"/><path d="m471.921875 272.53125v-248.984375c0-12.984375-10.5625-23.546875-23.546875-23.546875h-384.75c-12.984375 0-23.546875 10.5625-23.546875 23.546875v248.984375h-40.078125v39.578125c0 12.984375 10.5625 23.546875 23.546875 23.546875h464.90625c12.984375 0 23.546875-10.5625 23.546875-23.546875v-39.578125zm-416.8125-248.984375c0-4.695313 3.820313-8.515625 8.515625-8.515625h384.75c4.695312 0 8.515625 3.820312 8.515625 8.515625v248.984375h-17.03125v-240.46875h-367.71875v240.46875h-17.03125zm441.859375 288.5625c0 4.695313-3.820312 8.515625-8.515625 8.515625h-464.90625c-4.695313 0-8.515625-3.820312-8.515625-8.515625v-24.546875h168.828125v-15.03125h-96.6875v-225.4375h337.65625v225.4375h-96.6875v15.03125h168.828125zm0 0"/><path d="m151.796875 64.125h-47.59375v47.59375h15.03125v-32.5625h32.5625zm0 0"/></svg>