<svg height="512pt" viewBox="0 0 512 512" width="512pt" xmlns="http://www.w3.org/2000/svg"><g fill="#72e9cd"><path d="m215.921875 408.796875h16.03125v15.03125h-16.03125zm0 0"/><path d="m247.984375 408.796875h16.03125v15.03125h-16.03125zm0 0"/><path d="m280.046875 408.796875h16.03125v15.03125h-16.03125zm0 0"/><path d="m200.390625 448.875v18.644531l20.433594 20.433594h70.351562l20.433594-20.433594v-18.644531zm0 0"/></g><path d="m104.203125 288.0625h15.03125v-32.5625h32.5625v-15.03125h-47.59375zm0 0"/><path d="m471.921875 448.875v-248.984375c0-12.984375-10.5625-23.546875-23.546875-23.546875h-128.25v15.03125h128.25c4.695312 0 8.515625 3.820312 8.515625 8.515625v248.984375h-17.03125v-240.46875h-136.265625v-34.292969c9.308594-3.144531 16.03125-11.960937 16.03125-22.316406v-31.5625h-111.71875c-12.984375 0-23.546875 10.5625-23.546875 23.546875v35.175781l24.046875 24.046875v5.402344h-136.265625v240.46875h-17.03125v-248.984375c0-4.695313 3.820313-8.515625 8.515625-8.515625h104.203125v-15.03125h-104.203125c-12.984375 0-23.546875 10.5625-23.546875 23.546875v248.984375h-40.078125v39.578125c0 12.984375 10.5625 23.546875 23.546875 23.546875h464.90625c12.984375 0 23.546875-10.5625 23.546875-23.546875v-39.578125zm-272.53125-276.144531v-28.949219c0-4.695312 3.820313-8.515625 8.515625-8.515625h96.6875v16.53125c0 4.695313-3.820312 8.515625-8.515625 8.515625h-87.671875v21.4375zm61.511719 67.738281h-9.804688l-27.660156-27.660156v-37.464844h65.125v37.464844zm236.066406 247.984375c0 4.695313-3.820312 8.515625-8.515625 8.515625h-464.90625c-4.695313 0-8.515625-3.820312-8.515625-8.515625v-24.546875h168.828125v-15.03125h-96.6875v-225.4375h125.636719l19.644531 19.644531v28.949219h15.03125v-16.53125h17.03125v16.53125h15.03125v-28.949219l19.644531-19.644531h125.636719v225.4375h-96.6875v15.03125h168.828125zm0 0"/><path d="m328.640625 336.15625h15.03125v-71.640625h-39.578125v15.03125h24.546875zm0 0"/><path d="m168.328125 368.21875h15.03125v24.046875h-15.03125zm0 0"/><path d="m328.640625 368.21875h15.03125v24.046875h-15.03125zm0 0"/><path d="m168.328125 336.15625h15.03125v-56.609375h24.546875v-15.03125h-39.578125zm0 0"/><path d="m304.09375 328.640625v47.09375h47.59375v-47.09375zm0 0" fill="#72e9cd"/><path d="m160.3125 375.734375h47.59375v-47.09375h-47.59375zm0 0" fill="#72e9cd"/><path d="m200.390625 312.109375h15.03125v80.15625h-15.03125zm0 0"/><path d="m296.578125 312.109375h15.03125v80.15625h-15.03125zm0 0"/><path d="m314.71875 272.03125-26.65625-26.65625-32.0625 32.0625-32.0625-32.0625-26.65625 26.65625 42.6875 42.6875 16.03125-16.03125 16.03125 16.03125zm0 0" fill="#72e9cd"/><path d="m304.59375 0v111.21875h24.046875v32.0625h18.644531l32.0625-32.0625h84.558594v-111.21875zm0 0" fill="#72e9cd"/></svg>