<svg height="512pt" viewBox="0 0 512 512" width="512pt" xmlns="http://www.w3.org/2000/svg"><path d="m119.234375 288.0625h-15.03125v-47.59375h47.59375v15.03125h-32.5625zm0 0"/><path d="m200.390625 448.875v18.644531l20.433594 20.433594h70.351562l20.433594-20.433594v-18.644531zm0 0" fill="#72e9cd"/><path d="m471.921875 448.875v-248.984375c0-12.984375-10.5625-23.546875-23.546875-23.546875h-128.25v15.03125h128.25c4.695312 0 8.515625 3.820312 8.515625 8.515625v248.984375h-17.03125v-240.46875h-136.265625v-34.292969c9.308594-3.144531 16.03125-11.960937 16.03125-22.316406v-31.5625h-111.71875c-12.984375 0-23.546875 10.5625-23.546875 23.546875v35.175781l24.046875 24.046875v5.402344h-136.265625v240.46875h-17.03125v-248.984375c0-4.695313 3.820313-8.515625 8.515625-8.515625h104.203125v-15.03125h-104.203125c-12.984375 0-23.546875 10.5625-23.546875 23.546875v248.984375h-40.078125v39.578125c0 12.984375 10.5625 23.546875 23.546875 23.546875h464.90625c12.984375 0 23.546875-10.5625 23.546875-23.546875v-39.578125zm-272.53125-276.144531v-28.949219c0-4.695312 3.820313-8.515625 8.515625-8.515625h96.6875v16.53125c0 4.695313-3.820312 8.515625-8.515625 8.515625h-87.671875v21.4375zm61.511719 67.738281h-9.804688l-27.660156-27.660156v-37.464844h65.125v37.464844zm236.066406 247.984375c0 4.695313-3.820312 8.515625-8.515625 8.515625h-464.90625c-4.695313 0-8.515625-3.820312-8.515625-8.515625v-24.546875h168.828125v-15.03125h-96.6875v-225.4375h125.636719l19.644531 19.644531v28.949219h15.03125v-16.53125h17.03125v16.53125h15.03125v-28.949219l19.644531-19.644531h125.636719v225.4375h-96.6875v15.03125h168.828125zm0 0"/><path d="m328.640625 392.265625h15.03125v-127.75h-47.59375v15.03125h32.5625zm0 0"/><path d="m200.390625 312.109375h15.03125v80.15625h-15.03125zm0 0"/><path d="m296.578125 312.109375h15.03125v80.15625h-15.03125zm0 0"/><path d="m168.328125 392.265625h15.03125v-112.71875h32.5625v-15.03125h-47.59375zm0 0"/><path d="m279.160156 290.4375-14.257812-4.75-6.304688 18.90625h-5.195312l-6.304688-18.90625-14.257812 4.75 7.355468 22.074219-16.472656 74.132812 32.277344 32.28125 32.277344-32.28125-16.472656-74.132812zm-7.34375 91.417969-15.816406 15.816406-15.816406-15.816406 13.828125-62.230469h3.976562zm0 0"/><g fill="#72e9cd"><path d="m284.949219 248.484375-28.949219 28.953125-28.949219-28.953125h-18.644531v34.675781l23.546875 23.542969 24.046875-24.046875 24.046875 24.046875 23.546875-23.542969v-34.675781zm0 0"/><path d="m336.65625 0v111.21875h24.046875v32.0625h18.644531l32.0625-32.0625h84.558594v-111.21875zm0 0"/><path d="m215.921875 424.828125h16.03125v15.03125h-16.03125zm0 0"/><path d="m247.984375 424.828125h16.03125v15.03125h-16.03125zm0 0"/><path d="m280.046875 424.828125h16.03125v15.03125h-16.03125zm0 0"/></g></svg>