<svg height="512pt" viewBox="0 0 512 512" width="512pt" xmlns="http://www.w3.org/2000/svg"><g fill="#72e9cd"><path d="m215.921875 408.796875h16.03125v15.03125h-16.03125zm0 0"/><path d="m247.984375 408.796875h16.03125v15.03125h-16.03125zm0 0"/><path d="m280.046875 408.796875h16.03125v15.03125h-16.03125zm0 0"/><path d="m200.390625 448.875v18.644531l20.433594 20.433594h70.351562l20.433594-20.433594v-18.644531zm0 0"/><path d="m320.625 0v111.21875h24.046875v32.0625h18.644531l32.0625-32.0625h84.558594v-111.21875zm0 0"/><path d="m311.609375 272.03125h-15.03125v120.234375h39.578125v-120.234375zm0 0"/><path d="m200.390625 272.03125h-24.546875v120.234375h39.578125v-120.234375zm0 0"/></g><path d="m104.203125 288.0625h15.03125v-32.5625h32.5625v-15.03125h-47.59375zm0 0"/><path d="m471.921875 448.875v-248.984375c0-12.984375-10.5625-23.546875-23.546875-23.546875h-104.203125v15.03125h104.203125c4.695312 0 8.515625 3.820312 8.515625 8.515625v248.984375h-17.03125v-240.46875h-112.21875v-88.171875h-119.734375c-12.984375 0-23.546875 10.5625-23.546875 23.546875v64.625h-112.21875v240.46875h-17.03125v-248.984375c0-4.695313 3.820313-8.515625 8.515625-8.515625h104.203125v-15.03125h-104.203125c-12.984375 0-23.546875 10.5625-23.546875 23.546875v248.984375h-40.078125v39.578125c0 12.984375 10.5625 23.546875 23.546875 23.546875h464.90625c12.984375 0 23.546875-10.5625 23.546875-23.546875v-39.578125zm-248.484375-236.066406v-37.464844h65.125v37.464844l-27.660156 27.660156h-9.804688zm-24.046875-69.027344c0-4.695312 3.820313-8.515625 8.515625-8.515625h104.703125v25.046875h-104.203125v58.722656l13.421875 13.417969h-22.4375zm113.21875 31.5625v57.109375h-22.4375l13.421875-13.417969v-43.691406zm184.359375 313.109375c0 4.695313-3.820312 8.515625-8.515625 8.515625h-464.90625c-4.695313 0-8.515625-3.820312-8.515625-8.515625v-24.546875h168.828125v-15.03125h-96.6875v-225.4375h97.1875v24.046875h48.09375v17.03125h-64.125v127.75h15.03125v-112.71875h64.125v-24.046875h17.03125v24.046875h64.125v112.71875h15.03125v-127.75h-64.125v-17.03125h48.09375v-24.046875h97.1875v225.4375h-96.6875v15.03125h168.828125zm0 0"/><path d="m207.90625 304.59375h96.1875v15.03125h-96.1875zm0 0"/></svg>