<svg height="512pt" viewBox="0 -88 512 512" width="512pt" xmlns="http://www.w3.org/2000/svg"><path d="m135.765625 104.203125h88.171875v15.03125h-88.171875zm0 0"/><path d="m135.765625 136.265625h88.171875v15.03125h-88.171875zm0 0"/><path d="m135.765625 168.328125h88.171875v15.03125h-88.171875zm0 0"/><path d="m40.078125 40.078125h183.359375v47.09375h-183.359375zm0 0" fill="#72e9cd"/><path d="m40.078125 104.203125h79.15625v79.15625h-79.15625zm0 0" fill="#72e9cd"/><path d="m39.578125 200.390625h184.359375v15.03125h-184.359375zm0 0"/><path d="m39.578125 248.484375h184.359375v15.03125h-184.359375zm0 0"/><g fill="#72e9cd"><path d="m95.6875 224.4375h16.03125v15.03125h-16.03125zm0 0"/><path d="m127.75 224.4375h16.03125v15.03125h-16.03125zm0 0"/><path d="m159.8125 224.4375h16.03125v15.03125h-16.03125zm0 0"/></g><path d="m39.578125 280.546875h144.28125v15.03125h-144.28125zm0 0"/><path d="m512 335.65625h-263.515625v-320.625h-233.453125v305.59375h216.921875v15.03125h-231.953125v-335.65625h512zm-248.484375-15.03125h233.453125v-305.59375h-233.453125zm0 0"/><path d="m288.0625 72.140625h88.171875v15.03125h-88.171875zm0 0"/><path d="m288.0625 104.203125h88.171875v15.03125h-88.171875zm0 0"/><path d="m288.0625 136.265625h88.171875v15.03125h-88.171875zm0 0"/><path d="m288.0625 40.078125h184.359375v15.03125h-184.359375zm0 0"/><path d="m392.765625 72.140625h79.15625v79.15625h-79.15625zm0 0" fill="#72e9cd"/><path d="m288.5625 168.328125h183.359375v47.09375h-183.359375zm0 0" fill="#72e9cd"/><path d="m288.0625 248.484375h184.359375v15.03125h-184.359375zm0 0"/><path d="m344.171875 224.4375h16.03125v15.03125h-16.03125zm0 0" fill="#72e9cd"/><path d="m376.234375 224.4375h16.03125v15.03125h-16.03125zm0 0" fill="#72e9cd"/><path d="m408.296875 224.4375h16.03125v15.03125h-16.03125zm0 0" fill="#72e9cd"/><path d="m288.0625 280.546875h144.28125v15.03125h-144.28125zm0 0"/></svg>