<svg height="512pt" viewBox="0 -24 512 512" width="512pt" xmlns="http://www.w3.org/2000/svg"><g fill="#72e9cd"><path d="m151.796875 288.5625h16.03125v15.03125h-16.03125zm0 0"/><path d="m312.109375 136.265625h16.03125v15.03125h-16.03125zm0 0"/><path d="m352.1875 336.65625h16.03125v15.03125h-16.03125zm0 0"/></g><path d="m477.734375 365.519531-10.625-10.628906-13.828125 13.828125h-45.65625c10.605469-22.25 16.203125-46.765625 16.203125-72.140625 0-.167969 0-.332031 0-.5v-7.515625h-160.3125v-160.3125h-7.515625c-90.023438 0-163.707031 71.246094-167.652344 160.3125h-37.644531l-13.828125-13.828125-10.625 10.625 18.230469 18.234375h43.867187c3.949219 89.066406 77.632813 160.3125 167.652344 160.3125 43.445312 0 83.089844-16.59375 112.925781-43.777344l.4375.441406 5.316407-5.316406c9.605468-9.613281 17.898437-20.1875 24.800781-31.503906h60.023437zm-221.734375 83.355469c-81.734375 0-148.679688-64.503906-152.613281-145.28125h32.378906v-15.03125h-32.378906c3.808593-78.285156 66.8125-141.289062 145.097656-145.101562v156.230468l109.804687 109.804688c-27.105468 24.46875-62.984374 39.378906-102.289062 39.378906zm112.941406-49.984375-95.300781-95.296875h134.972656c-1.140625 23.480469-7.617187 45.582031-18.222656 65.125h-22.171875v15.03125h12.863281c-3.730469 5.304688-7.785156 10.359375-12.140625 15.140625zm0 0"/><path d="m63.125 263.515625h-63.125v-18.644531l18.234375-18.234375 10.625 10.628906-11.21875 11.21875h27.84375l-11.21875-11.21875 10.625-10.628906 18.234375 18.234375zm0 0"/><path d="m31.5625 192.375c-12.984375 0-23.546875 10.5625-23.546875 23.546875s10.5625 23.546875 23.546875 23.546875 23.546875-10.5625 23.546875-23.546875-10.5625-23.546875-23.546875-23.546875zm0 0" fill="#72e9cd"/><path d="m151.296875 71.140625h-63.125v-18.644531l18.234375-18.234375 10.625 10.628906-11.21875 11.21875h27.84375l-11.21875-11.21875 10.625-10.628906 18.234375 18.234375zm0 0"/><path d="m119.734375 0c-12.984375 0-23.546875 10.5625-23.546875 23.546875s10.5625 23.546875 23.546875 23.546875 23.546875-10.5625 23.546875-23.546875-10.5625-23.546875-23.546875-23.546875zm0 0" fill="#72e9cd"/><path d="m512 343.671875h-63.125v-18.644531l18.234375-18.230469 10.625 10.628906-11.21875 11.214844h27.84375l-11.21875-11.214844 10.625-10.628906 18.234375 18.230469zm0 0"/><path d="m480.4375 272.53125c-12.984375 0-23.546875 10.5625-23.546875 23.546875s10.5625 23.546875 23.546875 23.546875 23.546875-10.5625 23.546875-23.546875-10.5625-23.546875-23.546875-23.546875zm0 0" fill="#72e9cd"/><path d="m264.015625 111.21875h-131.363281l-18.230469-18.234375 10.625-10.628906 13.832031 13.832031h125.136719zm0 0"/><path d="m288.0625 96.1875h-7.515625v175.34375h175.34375v-7.515625c0-92.539063-75.289063-167.828125-167.828125-167.828125zm149.511719 136.265625h-141.996094v-121.054687c70.085937 3.414062 127.914063 54.269531 141.996094 121.054687zm-141.996094 24.046875v-9.015625h144.382813c.324218 2.980469.570312 5.984375.71875 9.015625zm0 0"/></svg>