<svg height="512pt" viewBox="-24 0 512 512" width="512pt" xmlns="http://www.w3.org/2000/svg"><path d="m208.203125 247.742188v263.757812h32.03125v.5h15.015625v-264.257812zm0 0" fill="#72e9cd"/><path d="m463.453125 168.164062h-157.546875l53.445312-53.445312v-18.625h-143.640624v15.015625h126.015624l-64.5625 64.5625 64.5625 64.5625h-198.085937v15.015625h215.710937v-18.625l-53.445312-53.445312h139.921875l-64.5625 64.5625 64.5625 64.5625h-174.0625v15.015624h191.6875v-18.625l-60.953125-60.953124 60.953125-60.953126zm0 0"/><g fill="#72e9cd"><path d="m71.570312 96.09375h16.015626v15.015625h-16.015626zm0 0"/><path d="m103.601562 96.09375h16.015626v15.015625h-16.015626zm0 0"/><path d="m135.632812 96.09375h16.015626v15.015625h-16.015626zm0 0"/><path d="m104.101562 175.671875v263.757813h32.03125v.5h15.015626v-264.257813zm0 0"/></g><path d="m255.25 183.179688h-215.710938v-15.015626h198.085938l-64.5625-64.5625 64.5625-64.5625h-198.085938v-15.015624h215.710938v18.625l-60.953125 60.953124 60.953125 60.953126zm0 0"/><path d="m0 0h47.046875v375.367188h-47.046875zm0 0" fill="#72e9cd"/></svg>