<svg height="512pt" fill="#4a5568" viewBox="-48 0 512 512" width="512pt" xmlns="http://www.w3.org/2000/svg"><g fill="#E45C61"><path d="m127.75 128.25h16.03125v15.03125h-16.03125zm0 0"/><path d="m159.8125 128.25h16.03125v15.03125h-16.03125zm0 0"/><path d="m191.875 128.25h16.03125v15.03125h-16.03125zm0 0"/><path d="m112.21875 48.09375v55.609375h111.21875v-55.609375zm0 0"/><path d="m80.15625 200.390625h47.09375v47.09375h-47.09375zm0 0"/><path d="m80.15625 376.734375h47.09375v47.09375h-47.09375zm0 0"/><path d="m80.15625 288.5625h47.09375v47.09375h-47.09375zm0 0"/><path d="m360.703125 0v39.578125h47.09375v-39.578125zm0 0"/></g><path d="m376.734375 296.078125h15.03125v16.03125h-15.03125zm0 0"/><path d="m353.691406 225.742188v49.097656l30.558594 30.558594 30.558594-30.558594v-49.097656zm0 0" fill="#E45C61"/><path d="m320.625 496.96875h-305.59375v-385.75h65.125v25.046875h-40.078125v335.65625h255.5v-335.65625h-40.078125v-25.046875h48.59375v-15.03125h-304.09375v415.8125h335.65625v-344.171875h-15.03125zm-40.078125-345.671875v305.59375h-225.4375v-305.59375h25.046875v24.046875h175.34375v-24.046875zm-40.078125 9.015625h-145.28125v-49.09375h145.28125zm0 0"/><path d="m151.796875 200.390625h104.203125v15.03125h-104.203125zm0 0"/><path d="m151.796875 232.453125h88.171875v15.03125h-88.171875zm0 0"/><path d="m151.796875 288.5625h104.203125v15.03125h-104.203125zm0 0"/><path d="m151.796875 320.625h88.171875v15.03125h-88.171875zm0 0"/><path d="m151.796875 376.734375h104.203125v15.03125h-104.203125zm0 0"/><path d="m151.796875 408.796875h88.171875v15.03125h-88.171875zm0 0"/><path d="m352.6875 32.0625v32.0625h-32.0625v87.671875h15.03125v-72.640625h17.03125v195.988281l31.5625 31.558594 31.5625-31.558594v-243.082031zm15.03125 15.03125h33.0625v17.03125h-33.0625zm16.53125 238.359375-16.53125-16.535156v-189.761719h33.0625v189.761719zm0 0"/></svg>