<svg height="512pt" viewBox="-56 0 512 512" width="512pt" xmlns="http://www.w3.org/2000/svg"><g fill="#72e9cd"><path d="m136.132812 32.03125h47.046876v47.046875h-47.046876zm0 0"/><path d="m136.132812 96.09375h47.046876v47.046875h-47.046876zm0 0"/><path d="m136.132812 160.15625h47.046876v47.046875h-47.046876zm0 0"/><path d="m159.65625 344.335938h16.015625v15.015624h-16.015625zm0 0"/><path d="m191.6875 344.335938h16.015625v15.015624h-16.015625zm0 0"/><path d="m223.71875 344.335938h16.015625v15.015624h-16.015625zm0 0"/></g><path d="m303.296875 168.164062v-168.164062h-207.203125v224.21875h-24.523438v15.015625h256.25v-15.015625h-216.710937v-209.203125h177.171875v200.695313h15.015625v-32.53125h81.078125v89.085937h-369.359375v-89.085937h64.5625v-15.015626h-79.578125v343.835938h15.015625v-224.71875h369.359375v224.71875h15.015625v-343.835938zm0 0"/><path d="m40.039062 487.476562h319.3125v-175.171874h-319.3125zm15.015626-160.15625h289.28125v145.140626h-289.28125zm0 0"/><path d="m199.695312 32.03125h64.0625v15.015625h-64.0625zm0 0"/><path d="m199.695312 64.0625h48.046876v15.015625h-48.046876zm0 0"/><path d="m199.695312 96.09375h64.0625v15.015625h-64.0625zm0 0"/><path d="m199.695312 128.125h48.046876v15.015625h-48.046876zm0 0"/><path d="m199.695312 160.15625h64.0625v15.015625h-64.0625zm0 0"/><path d="m199.695312 192.1875h48.046876v15.015625h-48.046876zm0 0"/><path d="m103.601562 376.367188h192.1875v15.015624h-192.1875zm0 0"/><path d="m103.601562 408.398438h192.1875v15.015624h-192.1875zm0 0"/><path d="m135.632812 440.429688h128.125v15.015624h-128.125zm0 0"/></svg>