<svg height="512pt" viewBox="-80 0 512 512" width="512pt" xmlns="http://www.w3.org/2000/svg"><path d="m72.140625 232.453125h111.21875v127.25h-111.21875zm0 0" fill="#72e9cd"/><path d="m200.390625 232.453125h111.21875v127.25h-111.21875zm0 0" fill="#72e9cd"/><path d="m119.734375 168.328125h144.28125v15.03125h-144.28125zm0 0"/><path d="m336.65625 176.34375-65.125-65.125v-7.515625h-15.03125v87.671875h87.671875v-15.03125zm0 0" fill="#72e9cd"/><path d="m96.1875 335.65625h63.125v-18.644531l-13.671875-13.667969c3.523437-4.117188 5.65625-9.453125 5.65625-15.28125 0-12.980469-10.5625-23.542969-23.546875-23.542969s-23.546875 10.558594-23.546875 23.542969c0 5.828125 2.132813 11.164062 5.652344 15.28125l-13.667969 13.667969zm17.640625-15.03125 9.449219-9.445312c1.449218.277343 2.941406.429687 4.472656.429687 1.527344 0 3.019531-.152344 4.46875-.429687l9.449219 9.445312zm13.921875-41.078125c4.695312 0 8.515625 3.820313 8.515625 8.515625s-3.820313 8.515625-8.515625 8.515625-8.515625-3.820313-8.515625-8.515625 3.820313-8.515625 8.515625-8.515625zm0 0"/><path d="m224.4375 335.65625h63.125v-18.644531l-13.667969-13.667969c3.519531-4.117188 5.652344-9.453125 5.652344-15.28125 0-12.980469-10.5625-23.542969-23.546875-23.542969s-23.546875 10.558594-23.546875 23.542969c0 5.828125 2.132813 11.164062 5.652344 15.28125l-13.667969 13.667969zm17.640625-15.03125 9.449219-9.445312c1.449218.277343 2.941406.429687 4.472656.429687 1.527344 0 3.023438-.152344 4.46875-.429687l9.449219 9.445312zm13.921875-41.078125c4.695312 0 8.515625 3.820313 8.515625 8.515625s-3.820313 8.515625-8.515625 8.515625-8.515625-3.820313-8.515625-8.515625 3.820313-8.515625 8.515625-8.515625zm0 0"/><path d="m71.640625 376.734375h112.21875v15.03125h-112.21875zm0 0"/><path d="m71.640625 408.796875h112.21875v15.03125h-112.21875zm0 0"/><path d="m71.640625 440.859375h112.21875v15.03125h-112.21875zm0 0"/><path d="m199.890625 376.734375h112.21875v15.03125h-112.21875zm0 0"/><path d="m199.890625 408.796875h112.21875v15.03125h-112.21875zm0 0"/><path d="m199.890625 440.859375h112.21875v15.03125h-112.21875zm0 0"/><path d="m267.128906 96.1875h-187.472656v15.03125h181.246094l75.753906 75.753906v309.996094h-289.5625v-224.9375h-15.03125v239.96875h319.625v-331.253906zm0 0"/><path d="m151.796875 200.390625h80.15625v15.03125h-80.15625zm0 0"/><path d="m39.578125 258.609375 23.546875-23.542969v-200.394531l16.03125-16.03125v-18.640625h-79.15625v18.640625l16.03125 16.03125v200.394531zm21.9375-243.578125-13.421875 13.417969v200.390625l-8.515625 8.519531-8.515625-8.519531v-200.390625l-13.421875-13.417969zm0 0"/><g fill="#72e9cd"><path d="m159.8125 136.265625h16.03125v15.03125h-16.03125zm0 0"/><path d="m191.875 136.265625h16.03125v15.03125h-16.03125zm0 0"/><path d="m223.9375 136.265625h16.03125v15.03125h-16.03125zm0 0"/></g></svg>