<svg height="512pt" fill="#4a5568" viewBox="-28 0 512 512" width="512pt" xmlns="http://www.w3.org/2000/svg"><path d="m319.8125 168.164062v-72.070312h-24.023438v-51.65625l-36.429687-36.429688h-129.230469v15.015626h123.011719l27.632813 27.632812v45.4375h-96.59375v15.015625h48.546874v17.015625h-53.445312l-32.03125-32.03125h-19.125v15.015625h12.90625l32.03125 32.03125h19.625v81.078125h-64.5625v15.015625h256.25v-15.015625h-176.671875v-81.078125h40.039063v-32.03125h57.054687v96.59375h15.015625v-24.523437h121.117188v89.085937h-369.359376v-89.085937h104.601563v-15.015626h-119.617187v343.835938h15.015624v-224.71875h369.359376v224.71875h15.015624v-343.835938zm0 0"/><path d="m96.59375 487.476562h319.3125v-175.171874h-319.3125zm15.015625-160.15625h289.28125v145.140626h-289.28125zm0 0"/><path d="m160.15625 376.367188h192.1875v15.015624h-192.1875zm0 0"/><path d="m160.15625 408.398438h192.1875v15.015624h-192.1875zm0 0"/><path d="m192.1875 440.429688h128.125v15.015624h-128.125zm0 0"/><g fill="#E45C61"><path d="m216.210938 344.335938h16.015624v15.015624h-16.015624zm0 0"/><path d="m248.242188 344.335938h16.015624v15.015624h-16.015624zm0 0"/><path d="m280.273438 344.335938h16.015624v15.015624h-16.015624zm0 0"/><path d="m0 0v135.132812h135.632812v-135.132812zm0 0"/></g><path d="m88.085938 88.085938h16.015624v15.015624h-16.015624zm0 0" fill="#fff"/></svg>