<svg height="512pt" viewBox="-80 0 512 512" width="512pt" xmlns="http://www.w3.org/2000/svg"><path d="m239.734375 176.171875v15.015625h32.53125v56.554688h15.015625v-71.570313zm0 0"/><path d="m64.0625 247.742188h15.015625v-56.554688h32.53125v-15.015625h-47.546875zm0 0"/><path d="m64.0625 279.773438h15.015625v32.03125h-15.015625zm0 0"/><path d="m272.265625 279.773438h15.015625v32.03125h-15.015625zm0 0"/><path d="m56.054688 287.28125h55.554687v-47.046875h-55.554687zm0 0" fill="#72e9cd"/><path d="m239.734375 240.234375v47.046875h55.554687v-47.046875zm0 0" fill="#72e9cd"/><path d="m119.617188 0c-12.972657 0-23.523438 10.550781-23.523438 23.523438v51.15625l24.023438 24.023437v24.023437l24.023437 24.023438v28.921875h15.015625v-16.515625h33.03125v16.515625h15.015625v-28.921875l24.023437-24.023438v-60.894531c9.300782-3.140625 16.015626-11.945312 16.015626-22.292969v-39.539062zm96.59375 116.507812-27.632813 27.632813h-25.8125l-27.632813-27.632813v-53.445312h81.078126zm16.015624-76.96875c0 4.691407-3.816406 8.507813-8.507812 8.507813h-103.601562v29.421875l-9.007813-9.007812v-44.9375c0-4.691407 3.816406-8.507813 8.507813-8.507813h112.609374zm0 0"/><path d="m250.351562 183.679688-34.640624-34.640626-40.039063 40.039063-40.039063-40.039063-34.640624 34.640626 50.65625 50.65625 24.023437-24.023438 24.023437 24.023438zm0 0" fill="#72e9cd"/><path d="m351.34375 304.296875h-104.101562v-80.578125h-15.015626v80.578125h-113.109374v-80.578125h-15.015626v80.578125h-65.0625v-117.507813l37.839844-37.839843-10.617187-10.617188-64.0625 64.0625 10.617187 10.617188 11.207032-11.207031v102.492187h-24.023438v127.125h63.5625v-15.015625h-48.546875v-65.0625h321.3125v65.0625h-65.0625v-24.023438h-191.1875v119.617188h15.015625v-104.601562h161.15625v104.601562h15.015625v-80.578125h80.078125zm-336.328125 32.03125v-17.015625h321.3125v17.015625zm0 0"/><g fill="#72e9cd"><path d="m79.578125 112.109375c-12.972656 0-23.523437 10.550781-23.523437 23.523437 0 12.96875 10.550781 23.523438 23.523437 23.523438 12.96875 0 23.523437-10.554688 23.523437-23.523438 0-12.972656-10.554687-23.523437-23.523437-23.523437zm0 0"/><path d="m135.632812 448.4375h16.015626v15.015625h-16.015626zm0 0"/><path d="m167.664062 448.4375h16.015626v15.015625h-16.015626zm0 0"/><path d="m199.695312 448.4375h16.015626v15.015625h-16.015626zm0 0"/></g></svg>