<svg height="512pt" viewBox="-80 0 512 512" width="512pt" xmlns="http://www.w3.org/2000/svg"><g fill="#72e9cd"><path d="m135.632812 448.4375h16.015626v15.015625h-16.015626zm0 0"/><path d="m167.664062 448.4375h16.015626v15.015625h-16.015626zm0 0"/><path d="m199.695312 448.4375h16.015626v15.015625h-16.015626zm0 0"/></g><path d="m351.34375 304.296875h-64.0625v-128.125h-63.5625v15.015625h48.546875v113.109375h-25.023437v-80.578125h-15.015626v80.578125h-24.773437l-16.019531-80.097656 7.375-22.128907-14.242188-4.75-8.640625 25.914063 15.621094 78.097656-15.875 15.871094-15.875-15.871094 15.621094-78.097656-8.640625-25.914063-14.242188 4.75 7.378906 22.128907-16.023437 80.097656h-24.773437v-80.578125h-15.015626v80.578125h-25.023437v-113.109375h48.546875v-15.015625h-63.5625v128.125h-25.023438v-117.507813l37.839844-37.839843-10.617187-10.617188-64.0625 64.0625 10.617187 10.617188 11.207032-11.207031v102.492187h-24.023438v127.125h63.5625v-15.015625h-48.546875v-65.0625h321.3125v65.0625h-65.0625v-24.023438h-191.1875v119.617188h15.015625v-104.601562h161.15625v104.601562h15.015625v-80.578125h80.078125zm-336.328125 15.015625h141.53125l17.015625 17.015625h-158.546875zm162.765625 17.015625 17.015625-17.015625h141.53125v17.015625zm0 0"/><path d="m167.664062 216.210938h16.015626v15.015624h-16.015626zm0 0"/><path d="m167.664062 184.179688h16.015626v15.015624h-16.015626zm0 0"/><path d="m119.617188 0c-12.972657 0-23.523438 10.550781-23.523438 23.523438v51.15625l24.023438 24.023437v24.023437l24.023437 24.023438v28.921875h15.015625v-16.515625h33.03125v16.515625h15.015625v-28.921875l24.023437-24.023438v-60.894531c9.300782-3.140625 16.015626-11.945312 16.015626-22.292969v-39.539062zm96.59375 116.507812-27.632813 27.632813h-25.8125l-27.632813-27.632813v-53.445312h81.078126zm16.015624-76.96875c0 4.691407-3.816406 8.507813-8.507812 8.507813h-103.601562v29.421875l-9.007813-9.007812v-44.9375c0-4.691407 3.816406-8.507813 8.507813-8.507813h112.609374zm0 0"/><path d="m212.601562 152.148438-36.929687 36.929687-36.929687-36.929687h-18.625v50.65625l23.523437 23.523437 32.03125-32.03125 32.03125 32.03125 23.523437-23.523437v-50.65625zm0 0" fill="#72e9cd"/><path d="m79.578125 112.109375c-12.972656 0-23.523437 10.550781-23.523437 23.523437 0 12.96875 10.550781 23.523438 23.523437 23.523438 12.96875 0 23.523437-10.554688 23.523437-23.523438 0-12.972656-10.554687-23.523437-23.523437-23.523437zm0 0" fill="#72e9cd"/></svg>